<?xml version="1.0" encoding="us-ascii" standalone="no"?><svg xmlns="http://www.w3.org/2000/svg" xmlns:xlink="http://www.w3.org/1999/xlink" contentStyleType="text/css" height="823px" preserveAspectRatio="none" style="width:366px;height:823px;background:#FFFFFF;" version="1.1" viewBox="0 0 366 823" width="366px" zoomAndPan="magnify"><defs/><g><text fill="#000000" font-family="sans-serif" font-size="14" font-weight="bold" lengthAdjust="spacing" textLength="124" x="114.28" y="23.5352">User - Use Cases</text><!--cluster Admin User--><g id="cluster_Admin User"><rect fill="none" height="773" rx="2.5" ry="2.5" style="stroke:#181818;stroke-width:1.0;" width="353.56" x="7" y="44.4883"/><text fill="#000000" font-family="sans-serif" font-size="14" font-weight="bold" lengthAdjust="spacing" textLength="84" x="141.78" y="60.0234">Admin User</text></g><!--entity admin--><g id="elem_admin"><ellipse cx="63" cy="411.7483" fill="#F1F1F1" rx="8" ry="8" style="stroke:#181818;stroke-width:0.5;"/><path d="M63,419.7483 L63,446.7483 M50,427.7483 L76,427.7483 M63,446.7483 L50,461.7483 M63,446.7483 L76,461.7483 " fill="none" style="stroke:#181818;stroke-width:0.5;"/><text fill="#000000" font-family="sans-serif" font-size="14" lengthAdjust="spacing" textLength="80" x="23" y="476.7834">Admin User</text></g><g id="elem_tweet"><ellipse cx="253.7827" cy="786.4848" fill="#F1F1F1" rx="65.4827" ry="15.4965" style="stroke:#181818;stroke-width:0.5;"/><text fill="#000000" font-family="sans-serif" font-size="14" lengthAdjust="spacing" textLength="81" x="210.2827" y="790.5024">Post Tweets</text></g><g id="elem_comment"><ellipse cx="253.7764" cy="716.4916" fill="#F1F1F1" rx="84.6664" ry="19.3333" style="stroke:#181818;stroke-width:0.5;"/><text fill="#000000" font-family="sans-serif" font-size="14" lengthAdjust="spacing" textLength="129" x="189.2764" y="719.7826">Comment on Posts</text></g><g id="elem_like"><ellipse cx="253.7782" cy="647.4872" fill="#F1F1F1" rx="59.3882" ry="14.7689" style="stroke:#181818;stroke-width:0.5;"/><text fill="#000000" font-family="sans-serif" font-size="14" lengthAdjust="spacing" textLength="67" x="217.2782" y="651.5048">Like Posts</text></g><g id="elem_retweet"><ellipse cx="253.779" cy="581.4881" fill="#F1F1F1" rx="70.199" ry="16.4398" style="stroke:#181818;stroke-width:0.5;"/><text fill="#000000" font-family="sans-serif" font-size="14" lengthAdjust="spacing" textLength="94" x="205.0915" y="585.213">Retweet Posts</text></g><g id="elem_follow"><ellipse cx="253.7784" cy="510.488" fill="#F1F1F1" rx="85.0984" ry="19.4197" style="stroke:#181818;stroke-width:0.5;"/><text fill="#000000" font-family="sans-serif" font-size="14" lengthAdjust="spacing" textLength="130" x="188.7784" y="513.779">Follow Other Users</text></g><g id="elem_edit"><ellipse cx="253.7786" cy="441.488" fill="#F1F1F1" rx="63.0986" ry="15.0197" style="stroke:#181818;stroke-width:0.5;"/><text fill="#000000" font-family="sans-serif" font-size="14" lengthAdjust="spacing" textLength="74" x="213.7786" y="445.5056">Edit Profile</text></g><g id="elem_search"><ellipse cx="253.7816" cy="373.4926" fill="#F1F1F1" rx="76.6216" ry="17.7243" style="stroke:#181818;stroke-width:0.5;"/><text fill="#000000" font-family="sans-serif" font-size="14" lengthAdjust="spacing" textLength="110" x="198.7816" y="376.7836">Search for Posts</text></g><g id="elem_trends"><ellipse cx="253.7783" cy="304.4879" fill="#F1F1F1" rx="71.7483" ry="16.7497" style="stroke:#181818;stroke-width:0.5;"/><text fill="#000000" font-family="sans-serif" font-size="14" lengthAdjust="spacing" textLength="98" x="203.8933" y="308.0151">Access Trends</text></g><g id="elem_control_panel"><ellipse cx="253.7804" cy="232.4844" fill="#F1F1F1" rx="90.7804" ry="20.5561" style="stroke:#181818;stroke-width:0.5;"/><text fill="#000000" font-family="sans-serif" font-size="14" lengthAdjust="spacing" textLength="143" x="182.2804" y="235.7754">Access Control Panel</text></g><g id="elem_ban_user"><ellipse cx="253.7782" cy="162.4872" fill="#F1F1F1" rx="59.3882" ry="14.7689" style="stroke:#181818;stroke-width:0.5;"/><text fill="#000000" font-family="sans-serif" font-size="14" lengthAdjust="spacing" textLength="67" x="217.2782" y="166.5048">Ban Users</text></g><g id="elem_delete_tweet"><ellipse cx="253.7818" cy="96.4846" fill="#F1F1F1" rx="70.5818" ry="16.5164" style="stroke:#181818;stroke-width:0.5;"/><text fill="#000000" font-family="sans-serif" font-size="14" lengthAdjust="spacing" textLength="95" x="204.7984" y="100.1607">Delete Tweets</text></g><!--link admin to tweet--><g id="link_admin_tweet"><path d="M65.66,480.0083 C70.49,544.8983 89.37,676.4683 163,753.4883 C173.44,764.4083 182.1407,769.7738 196.3107,774.6838 " fill="none" id="admin-to-tweet" style="stroke:#181818;stroke-width:1.0;"/><polygon fill="#181818" points="201.98,776.6483,194.7857,769.9221,197.2556,775.0112,192.1664,777.4811,201.98,776.6483" style="stroke:#181818;stroke-width:1.0;"/></g><!--link admin to comment--><g id="link_admin_comment"><path d="M70.53,479.9583 C81.19,531.7283 107.06,623.7283 163,679.4883 C172.67,689.1283 179.6931,694.0095 192.3231,699.4095 " fill="none" id="admin-to-comment" style="stroke:#181818;stroke-width:1.0;"/><polygon fill="#181818" points="197.84,701.7683,191.1372,694.5522,193.2426,699.8026,187.9921,701.9081,197.84,701.7683" style="stroke:#181818;stroke-width:1.0;"/></g><!--link admin to like--><g id="link_admin_like"><path d="M76.79,480.0083 C91.68,519.2383 119.86,579.3083 163,615.4883 C175.55,626.0183 186.1004,631.3756 201.3404,636.2056 " fill="none" id="admin-to-like" style="stroke:#181818;stroke-width:1.0;"/><polygon fill="#181818" points="207.06,638.0183,199.689,631.4861,202.2936,636.5077,197.2721,639.1123,207.06,638.0183" style="stroke:#181818;stroke-width:1.0;"/></g><!--link admin to retweet--><g id="link_admin_retweet"><path d="M92.58,479.9983 C110.71,502.2083 135.81,529.2583 163,547.4883 C176.43,556.4983 186.9183,561.5439 201.7883,566.8439 " fill="none" id="admin-to-retweet" style="stroke:#181818;stroke-width:1.0;"/><polygon fill="#181818" points="207.44,568.8583,200.3053,562.0688,202.7302,567.1796,197.6195,569.6045,207.44,568.8583" style="stroke:#181818;stroke-width:1.0;"/></g><!--link admin to follow--><g id="link_admin_follow"><path d="M103.12,455.7883 C133.46,466.8783 169.945,480.2076 201.775,491.8476 " fill="none" id="admin-to-follow" style="stroke:#181818;stroke-width:1.0;"/><polygon fill="#181818" points="207.41,493.9083,200.3312,487.0606,202.7141,492.191,197.5837,494.5739,207.41,493.9083" style="stroke:#181818;stroke-width:1.0;"/></g><!--link admin to edit--><g id="link_admin_edit"><path d="M103.12,441.4883 C128.28,441.4883 155.53,441.4883 184.31,441.4883 " fill="none" id="admin-to-edit" style="stroke:#181818;stroke-width:1.0;"/><polygon fill="#181818" points="190.31,441.4883,181.31,437.4883,185.31,441.4883,181.31,445.4883,190.31,441.4883" style="stroke:#181818;stroke-width:1.0;"/></g><!--link admin to search--><g id="link_admin_search"><path d="M103.12,427.3983 C134.65,416.0383 173.2551,402.1318 205.4551,390.5318 " fill="none" id="admin-to-search" style="stroke:#181818;stroke-width:1.0;"/><polygon fill="#181818" points="211.1,388.4983,201.277,387.7854,206.3959,390.1929,203.9884,395.3119,211.1,388.4983" style="stroke:#181818;stroke-width:1.0;"/></g><!--link admin to trends--><g id="link_admin_trends"><path d="M93.84,402.8583 C111.95,381.5283 136.61,355.9183 163,338.4883 C176.35,329.6683 186.6731,324.7163 201.4031,319.4263 " fill="none" id="admin-to-trends" style="stroke:#181818;stroke-width:1.0;"/><polygon fill="#181818" points="207.05,317.3983,197.2277,316.6756,202.3443,319.0883,199.9317,324.2048,207.05,317.3983" style="stroke:#181818;stroke-width:1.0;"/></g><!--link admin to control_panel--><g id="link_admin_control_panel"><path d="M77.82,403.0683 C93.29,364.8883 121.72,306.9283 163,270.4883 C173.15,261.5283 180.2372,256.8726 192.7272,251.3826 " fill="none" id="admin-to-control_panel" style="stroke:#181818;stroke-width:1.0;"/><polygon fill="#181818" points="198.22,248.9683,188.3712,248.928,193.6427,250.9803,191.5904,256.2517,198.22,248.9683" style="stroke:#181818;stroke-width:1.0;"/></g><!--link admin to ban_user--><g id="link_admin_ban_user"><path d="M69.39,402.9983 C78.88,349.1883 103.57,251.6583 163,194.4883 C174.57,183.3583 184.54,177.8798 199.57,173.1198 " fill="none" id="admin-to-ban_user" style="stroke:#181818;stroke-width:1.0;"/><polygon fill="#181818" points="205.29,171.3083,195.5023,170.2122,200.5233,172.8179,197.9177,177.8389,205.29,171.3083" style="stroke:#181818;stroke-width:1.0;"/></g><!--link admin to delete_tweet--><g id="link_admin_delete_tweet"><path d="M65.8,402.9083 C70.84,338.2483 90.02,207.5083 163,130.4883 C172.97,119.9583 180.9173,114.7623 194.4773,109.7123 " fill="none" id="admin-to-delete_tweet" style="stroke:#181818;stroke-width:1.0;"/><polygon fill="#181818" points="200.1,107.6183,190.2699,107.0108,195.4144,109.3633,193.0619,114.5078,200.1,107.6183" style="stroke:#181818;stroke-width:1.0;"/></g><!--SRC=[RP7BJiCm44Nt_efHzla5f19WXKG5PHqPPz9Ok3OQ3-e2yU_uKTLZr6nY7v_numvRTWZ3UqI24T8F9Xqn3aevN1au0DdZnh1OGiCsUANoGFjZBjij9-jp5GtmenIaJniErA_e23fFg_0TqQGZODY7o70u8t8i3kTXhqpXT4BF43naktgcmjvyjfye79UclV2APN_X4DuuyIau5yxmmbiA95-_kcl1lVgusBGTXTKwB18cq2jlgCbigPh4kR70NjmPWp72WT0lbpJAyAOr1SyK7EorHtU9f93vAvE-vbvxyOuFxUUqHBtpW0uPPI-MGkOQKErhQUWutea-DIPxqkYr2mt9q1iLyJPuZRCX4PsuJqjANkX_8csj2w7X_is_wWy0]--></g></svg>