<?xml version="1.0" encoding="us-ascii" standalone="no"?><svg xmlns="http://www.w3.org/2000/svg" xmlns:xlink="http://www.w3.org/1999/xlink" contentStyleType="text/css" height="547px" preserveAspectRatio="none" style="width:306px;height:547px;background:#FFFFFF;" version="1.1" viewBox="0 0 306 547" width="306px" zoomAndPan="magnify"><defs/><g><text fill="#000000" font-family="sans-serif" font-size="14" font-weight="bold" lengthAdjust="spacing" textLength="124" x="84.1" y="23.5352">User - Use Cases</text><!--cluster Basic User--><g id="cluster_Basic User"><rect fill="none" height="497" rx="2.5" ry="2.5" style="stroke:#181818;stroke-width:1.0;" width="293.2" x="7" y="44.4883"/><text fill="#000000" font-family="sans-serif" font-size="14" font-weight="bold" lengthAdjust="spacing" textLength="74" x="116.6" y="60.0234">Basic User</text></g><!--entity user--><g id="elem_user"><ellipse cx="38.5" cy="275.7483" fill="#F1F1F1" rx="8" ry="8" style="stroke:#181818;stroke-width:0.5;"/><path d="M38.5,283.7483 L38.5,310.7483 M25.5,291.7483 L51.5,291.7483 M38.5,310.7483 L25.5,325.7483 M38.5,310.7483 L51.5,325.7483 " fill="none" style="stroke:#181818;stroke-width:0.5;"/><text fill="#000000" font-family="sans-serif" font-size="14" lengthAdjust="spacing" textLength="31" x="23" y="340.7834">User</text></g><g id="elem_tweet"><ellipse cx="199.1027" cy="510.4848" fill="#F1F1F1" rx="65.4827" ry="15.4965" style="stroke:#181818;stroke-width:0.5;"/><text fill="#000000" font-family="sans-serif" font-size="14" lengthAdjust="spacing" textLength="81" x="155.6027" y="514.5024">Post Tweets</text></g><g id="elem_comment"><ellipse cx="199.0964" cy="440.4916" fill="#F1F1F1" rx="84.6664" ry="19.3333" style="stroke:#181818;stroke-width:0.5;"/><text fill="#000000" font-family="sans-serif" font-size="14" lengthAdjust="spacing" textLength="129" x="134.5964" y="443.7826">Comment on Posts</text></g><g id="elem_like"><ellipse cx="199.0982" cy="371.4872" fill="#F1F1F1" rx="59.3882" ry="14.7689" style="stroke:#181818;stroke-width:0.5;"/><text fill="#000000" font-family="sans-serif" font-size="14" lengthAdjust="spacing" textLength="67" x="162.5982" y="375.5048">Like Posts</text></g><g id="elem_retweet"><ellipse cx="199.099" cy="305.4881" fill="#F1F1F1" rx="70.199" ry="16.4398" style="stroke:#181818;stroke-width:0.5;"/><text fill="#000000" font-family="sans-serif" font-size="14" lengthAdjust="spacing" textLength="94" x="150.4115" y="309.213">Retweet Posts</text></g><g id="elem_follow"><ellipse cx="199.0984" cy="234.488" fill="#F1F1F1" rx="85.0984" ry="19.4197" style="stroke:#181818;stroke-width:0.5;"/><text fill="#000000" font-family="sans-serif" font-size="14" lengthAdjust="spacing" textLength="130" x="134.0984" y="237.779">Follow Other Users</text></g><g id="elem_edit"><ellipse cx="199.0986" cy="165.488" fill="#F1F1F1" rx="63.0986" ry="15.0197" style="stroke:#181818;stroke-width:0.5;"/><text fill="#000000" font-family="sans-serif" font-size="14" lengthAdjust="spacing" textLength="74" x="159.0986" y="169.5056">Edit Profile</text></g><g id="elem_search"><ellipse cx="199.1016" cy="97.4926" fill="#F1F1F1" rx="76.6216" ry="17.7243" style="stroke:#181818;stroke-width:0.5;"/><text fill="#000000" font-family="sans-serif" font-size="14" lengthAdjust="spacing" textLength="110" x="144.1016" y="100.7836">Search for Posts</text></g><!--link user to tweet--><g id="link_user_tweet"><path d="M47.09,343.9283 C56.56,382.4483 76.31,441.0883 114,477.4883 C124.38,487.5083 132.5317,492.5192 145.9317,497.4692 " fill="none" id="user-to-tweet" style="stroke:#181818;stroke-width:1.0;"/><polygon fill="#181818" points="151.56,499.5483,144.5037,492.6775,146.8698,497.8157,141.7315,500.1818,151.56,499.5483" style="stroke:#181818;stroke-width:1.0;"/></g><!--link user to comment--><g id="link_user_comment"><path d="M54.29,331.7683 C67.57,353.4083 88.83,383.6383 114,403.4883 C124.77,411.9783 132.3046,416.5399 144.8546,422.0399 " fill="none" id="user-to-comment" style="stroke:#181818;stroke-width:1.0;"/><polygon fill="#181818" points="150.35,424.4483,143.7124,417.1721,145.7705,422.4413,140.5013,424.4994,150.35,424.4483" style="stroke:#181818;stroke-width:1.0;"/></g><!--link user to like--><g id="link_user_like"><path d="M54.5,312.6783 C69.46,319.7683 93.14,330.7683 114,339.4883 C130.43,346.3583 143.2889,351.3499 158.7189,357.1099 " fill="none" id="user-to-like" style="stroke:#181818;stroke-width:1.0;"/><polygon fill="#181818" points="164.34,359.2083,157.3072,352.3133,159.6557,357.4597,154.5094,359.8082,164.34,359.2083" style="stroke:#181818;stroke-width:1.0;"/></g><!--link user to retweet--><g id="link_user_retweet"><path d="M54.42,305.4883 C71.54,305.4883 94.82,305.4883 122.51,305.4883 " fill="none" id="user-to-retweet" style="stroke:#181818;stroke-width:1.0;"/><polygon fill="#181818" points="128.51,305.4883,119.51,301.4883,123.51,305.4883,119.51,309.4883,128.51,305.4883" style="stroke:#181818;stroke-width:1.0;"/></g><!--link user to follow--><g id="link_user_follow"><path d="M54.31,298.6583 C69.33,291.7483 93.24,280.7883 114,271.4883 C128.41,265.0283 138.7575,260.4533 152.7675,254.2933 " fill="none" id="user-to-follow" style="stroke:#181818;stroke-width:1.0;"/><polygon fill="#181818" points="158.26,251.8783,148.4112,251.8391,153.6829,253.8908,151.6312,259.1624,158.26,251.8783" style="stroke:#181818;stroke-width:1.0;"/></g><!--link user to edit--><g id="link_user_edit"><path d="M54.45,274.1783 C67.28,250.2583 87.84,218.0183 114,197.4883 C125.8,188.2283 134.9127,183.4169 148.7827,178.5169 " fill="none" id="user-to-edit" style="stroke:#181818;stroke-width:1.0;"/><polygon fill="#181818" points="154.44,176.5183,144.6216,175.7447,149.7256,178.1838,147.2864,183.2878,154.44,176.5183" style="stroke:#181818;stroke-width:1.0;"/></g><!--link user to search--><g id="link_user_search"><path d="M47.19,266.9883 C56.73,228.3783 76.54,169.4883 114,132.4883 C123.45,123.1483 130.2192,118.5042 142.4892,113.3442 " fill="none" id="user-to-search" style="stroke:#181818;stroke-width:1.0;"/><polygon fill="#181818" points="148.02,111.0183,138.1731,110.8199,143.411,112.9566,141.2744,118.1944,148.02,111.0183" style="stroke:#181818;stroke-width:1.0;"/></g><!--SRC=[RP11RW8n303lUOMLEr_e0GIdIgs0FY0ANZPgM4kE4OUAl-F40YMekQntCdPiIvACu7yACgn0Fx091OjtBkCa80ISphF0AJ56IRGuLuEmd6lQEfGKQnPx-7CEz8Gen5RGGoXmrS1kD8fQ6_mt5O7Z3L5AKwI6exAXomKN0LgWskP5WwFvcNwnSxB-Zi8UM_tEOVpdnHtbJ3VuabatKRitTsfuLBUdfEMOffInIQXWL0uOECwQpTsxfS7NCdJXguznU4DlSnhi1pFoDeR1iLzZVNj6dftStGC0]--></g></svg>