<?xml version="1.0" encoding="us-ascii" standalone="no"?><svg xmlns="http://www.w3.org/2000/svg" xmlns:xlink="http://www.w3.org/1999/xlink" contentStyleType="text/css" height="615px" preserveAspectRatio="none" style="width:371px;height:615px;background:#FFFFFF;" version="1.1" viewBox="0 0 371 615" width="371px" zoomAndPan="magnify"><defs/><g><text fill="#000000" font-family="sans-serif" font-size="14" font-weight="bold" lengthAdjust="spacing" textLength="124" x="116.6" y="23.5352">User - Use Cases</text><!--cluster Premium User--><g id="cluster_Premium User"><rect fill="none" height="565" rx="2.5" ry="2.5" style="stroke:#181818;stroke-width:1.0;" width="358.2" x="7" y="44.4883"/><text fill="#000000" font-family="sans-serif" font-size="14" font-weight="bold" lengthAdjust="spacing" textLength="102" x="135.1" y="60.0234">Premium User</text></g><!--entity premium--><g id="elem_premium"><ellipse cx="71" cy="308.7483" fill="#F1F1F1" rx="8" ry="8" style="stroke:#181818;stroke-width:0.5;"/><path d="M71,316.7483 L71,343.7483 M58,324.7483 L84,324.7483 M71,343.7483 L58,358.7483 M71,343.7483 L84,358.7483 " fill="none" style="stroke:#181818;stroke-width:0.5;"/><text fill="#000000" font-family="sans-serif" font-size="14" lengthAdjust="spacing" textLength="96" x="23" y="373.7834">Premium User</text></g><g id="elem_tweet"><ellipse cx="264.1027" cy="578.4848" fill="#F1F1F1" rx="65.4827" ry="15.4965" style="stroke:#181818;stroke-width:0.5;"/><text fill="#000000" font-family="sans-serif" font-size="14" lengthAdjust="spacing" textLength="81" x="220.6027" y="582.5024">Post Tweets</text></g><g id="elem_comment"><ellipse cx="264.0964" cy="508.4916" fill="#F1F1F1" rx="84.6664" ry="19.3333" style="stroke:#181818;stroke-width:0.5;"/><text fill="#000000" font-family="sans-serif" font-size="14" lengthAdjust="spacing" textLength="129" x="199.5964" y="511.7826">Comment on Posts</text></g><g id="elem_like"><ellipse cx="264.0982" cy="439.4872" fill="#F1F1F1" rx="59.3882" ry="14.7689" style="stroke:#181818;stroke-width:0.5;"/><text fill="#000000" font-family="sans-serif" font-size="14" lengthAdjust="spacing" textLength="67" x="227.5982" y="443.5048">Like Posts</text></g><g id="elem_retweet"><ellipse cx="264.099" cy="373.4881" fill="#F1F1F1" rx="70.199" ry="16.4398" style="stroke:#181818;stroke-width:0.5;"/><text fill="#000000" font-family="sans-serif" font-size="14" lengthAdjust="spacing" textLength="94" x="215.4115" y="377.213">Retweet Posts</text></g><g id="elem_follow"><ellipse cx="264.0984" cy="302.488" fill="#F1F1F1" rx="85.0984" ry="19.4197" style="stroke:#181818;stroke-width:0.5;"/><text fill="#000000" font-family="sans-serif" font-size="14" lengthAdjust="spacing" textLength="130" x="199.0984" y="305.779">Follow Other Users</text></g><g id="elem_edit"><ellipse cx="264.0986" cy="233.488" fill="#F1F1F1" rx="63.0986" ry="15.0197" style="stroke:#181818;stroke-width:0.5;"/><text fill="#000000" font-family="sans-serif" font-size="14" lengthAdjust="spacing" textLength="74" x="224.0986" y="237.5056">Edit Profile</text></g><g id="elem_search"><ellipse cx="264.1016" cy="165.4926" fill="#F1F1F1" rx="76.6216" ry="17.7243" style="stroke:#181818;stroke-width:0.5;"/><text fill="#000000" font-family="sans-serif" font-size="14" lengthAdjust="spacing" textLength="110" x="209.1016" y="168.7836">Search for Posts</text></g><g id="elem_trends"><ellipse cx="264.0983" cy="96.4879" fill="#F1F1F1" rx="71.7483" ry="16.7497" style="stroke:#181818;stroke-width:0.5;"/><text fill="#000000" font-family="sans-serif" font-size="14" lengthAdjust="spacing" textLength="98" x="214.2133" y="100.0151">Access Trends</text></g><!--link premium to tweet--><g id="link_premium_tweet"><path d="M82.69,376.8783 C97.32,422.8083 127.78,499.2983 179,545.4883 C189.83,555.2583 198.2612,560.2008 211.7812,565.1908 " fill="none" id="premium-to-tweet" style="stroke:#181818;stroke-width:1.0;"/><polygon fill="#181818" points="217.41,567.2683,210.3517,560.3994,212.7193,565.537,207.5817,567.9046,217.41,567.2683" style="stroke:#181818;stroke-width:1.0;"/></g><!--link premium to comment--><g id="link_premium_comment"><path d="M95.67,377.0783 C115.1,406.1483 144.89,445.3483 179,471.4883 C189.89,479.8283 197.4546,484.3399 210.0046,489.8399 " fill="none" id="premium-to-comment" style="stroke:#181818;stroke-width:1.0;"/><polygon fill="#181818" points="215.5,492.2483,208.8624,484.9721,210.9205,490.2413,205.6513,492.2994,215.5,492.2483" style="stroke:#181818;stroke-width:1.0;"/></g><!--link premium to like--><g id="link_premium_like"><path d="M119.47,372.1383 C137.6,384.1683 158.78,397.2683 179,407.4883 C194.2,415.1683 206.0544,420.0868 221.1444,425.5168 " fill="none" id="premium-to-like" style="stroke:#181818;stroke-width:1.0;"/><polygon fill="#181818" points="226.79,427.5483,219.6759,420.7373,222.0853,425.8553,216.9672,428.2647,226.79,427.5483" style="stroke:#181818;stroke-width:1.0;"/></g><!--link premium to retweet--><g id="link_premium_retweet"><path d="M119.24,347.1383 C145.99,352.0383 173.6882,357.107 201.6882,362.237 " fill="none" id="premium-to-retweet" style="stroke:#181818;stroke-width:1.0;"/><polygon fill="#181818" points="207.59,363.3183,199.4582,357.7618,202.6719,362.4172,198.0165,365.6309,207.59,363.3183" style="stroke:#181818;stroke-width:1.0;"/></g><!--link premium to follow--><g id="link_premium_follow"><path d="M119.24,329.5883 C142.78,325.1583 165.7335,320.8278 191.4035,315.9978 " fill="none" id="premium-to-follow" style="stroke:#181818;stroke-width:1.0;"/><polygon fill="#181818" points="197.3,314.8883,187.7156,312.6215,192.3862,315.8128,189.1949,320.4835,197.3,314.8883" style="stroke:#181818;stroke-width:1.0;"/></g><!--link premium to edit--><g id="link_premium_edit"><path d="M119.24,302.7283 C137.34,289.9883 158.57,276.1583 179,265.4883 C193.68,257.8283 204.9757,253.0534 219.7857,247.7134 " fill="none" id="premium-to-edit" style="stroke:#181818;stroke-width:1.0;"/><polygon fill="#181818" points="225.43,245.6783,215.6068,244.9681,220.7264,247.3742,218.3203,252.4939,225.43,245.6783" style="stroke:#181818;stroke-width:1.0;"/></g><!--link premium to search--><g id="link_premium_search"><path d="M94.23,299.7683 C113.37,269.3283 143.48,227.6483 179,200.4883 C190.18,191.9383 198.1941,187.3736 211.1441,182.0936 " fill="none" id="premium-to-search" style="stroke:#181818;stroke-width:1.0;"/><polygon fill="#181818" points="216.7,179.8283,206.8559,179.5222,212.07,181.716,209.8763,186.9302,216.7,179.8283" style="stroke:#181818;stroke-width:1.0;"/></g><!--link premium to trends--><g id="link_premium_trends"><path d="M82.72,300.0083 C97.38,253.9383 127.87,177.1683 179,130.4883 C189.23,121.1483 196.7914,116.4171 209.6214,111.3371 " fill="none" id="premium-to-trends" style="stroke:#181818;stroke-width:1.0;"/><polygon fill="#181818" points="215.2,109.1283,205.3595,108.7225,210.5511,110.969,208.3046,116.1606,215.2,109.1283" style="stroke:#181818;stroke-width:1.0;"/></g><!--SRC=[RP3FQiCm38VlVWgHUrwXC4ft6cnixGCOHsdC77j8AZsKldlz9nHvD9SeNpvPra-y18JXn4WmGdx1tZBoO4p0MK0Ia3yl0fCdTE9JDAOKDfvBsnVXwYzhwQC1RiP0VgoJHF__MOQ_1ffqONHvKDOI2nolYCBLabBsoZwjAqQ15A7OpNCDzkQ7_qNbXFpP2zzOprSEuOk9xoc4T8LFMN8iPO7cpXNtwc7o-JXAimzO9SoWLtxGabjoDwcvN64llZc7p70aZDEMHYrRP5j-C8uxbPAcEXFDdpbeg1VNN2sfyNCj3TKItUssMz_D0m00]--></g></svg>