<?xml version="1.0" encoding="us-ascii" standalone="no"?><svg xmlns="http://www.w3.org/2000/svg" xmlns:xlink="http://www.w3.org/1999/xlink" contentStyleType="text/css" height="347px" preserveAspectRatio="none" style="width:456px;height:347px;background:#FFFFFF;" version="1.1" viewBox="0 0 456 347" width="456px" zoomAndPan="magnify"><defs/><g><text fill="#000000" font-family="sans-serif" font-size="14" font-weight="bold" lengthAdjust="spacing" textLength="166" x="138.3261" y="23.5352">Tweet Interaction - UC</text><g id="elem_Post"><ellipse cx="81.1183" cy="212.3179" fill="#F1F1F1" rx="67.2483" ry="15.8497" style="stroke:#181818;stroke-width:0.5;"/><text fill="#000000" font-family="sans-serif" font-size="14" lengthAdjust="spacing" textLength="86" x="35.1183" y="216.3355">Post a Tweet</text></g><g id="elem_Attach"><ellipse cx="81.1249" cy="315.4862" fill="#F1F1F1" rx="75.1249" ry="26.318" style="stroke:#181818;stroke-width:0.5;"/><text fill="#000000" font-family="sans-serif" font-size="14" lengthAdjust="spacing" textLength="90" x="36.1249" y="310.5331">Attach Image</text><text fill="#000000" font-family="sans-serif" font-size="14" lengthAdjust="spacing" textLength="59" x="51.6249" y="327.0214">to Tweet</text></g><g id="elem_Retweet"><ellipse cx="233.1167" cy="212.3192" fill="#F1F1F1" rx="49.7967" ry="14.6909" style="stroke:#181818;stroke-width:0.5;"/><text fill="#000000" font-family="sans-serif" font-size="14" lengthAdjust="spacing" textLength="54" x="203.674" y="216.2204">Retweet</text></g><g id="elem_Like"><ellipse cx="384.1161" cy="212.3155" fill="#F1F1F1" rx="66.5361" ry="15.7072" style="stroke:#181818;stroke-width:0.5;"/><text fill="#000000" font-family="sans-serif" font-size="14" lengthAdjust="spacing" textLength="84" x="339.1161" y="216.3331">Like a Tweet</text></g><!--entity Author--><g id="elem_Author"><ellipse cx="81.12" cy="51.4883" fill="#F1F1F1" rx="8" ry="8" style="stroke:#181818;stroke-width:0.5;"/><path d="M81.12,59.4883 L81.12,86.4883 M68.12,67.4883 L94.12,67.4883 M81.12,86.4883 L68.12,101.4883 M81.12,86.4883 L94.12,101.4883 " fill="none" style="stroke:#181818;stroke-width:0.5;"/><text fill="#000000" font-family="sans-serif" font-size="14" lengthAdjust="spacing" textLength="48" x="57.12" y="116.5234">Author</text></g><!--entity Follower--><g id="elem_Follower"><ellipse cx="308.12" cy="51.4883" fill="#F1F1F1" rx="8" ry="8" style="stroke:#181818;stroke-width:0.5;"/><path d="M308.12,59.4883 L308.12,86.4883 M295.12,67.4883 L321.12,67.4883 M308.12,86.4883 L295.12,101.4883 M308.12,86.4883 L321.12,101.4883 " fill="none" style="stroke:#181818;stroke-width:0.5;"/><text fill="#000000" font-family="sans-serif" font-size="14" lengthAdjust="spacing" textLength="59" x="278.62" y="116.5234">Follower</text></g><!--link Author to Post--><g id="link_Author_Post"><path d="M81.12,119.9183 C81.12,145.3683 81.12,171.5983 81.12,190.1983 " fill="none" id="Author-to-Post" style="stroke:#181818;stroke-width:1.0;"/><polygon fill="#181818" points="81.12,196.1983,85.12,187.1983,81.12,191.1983,77.12,187.1983,81.12,196.1983" style="stroke:#181818;stroke-width:1.0;"/><text fill="#000000" font-family="sans-serif" font-size="13" lengthAdjust="spacing" textLength="34" x="82.12" y="163.0366">Posts</text></g><!--link Post to Attach--><g id="link_Post_Attach"><path d="M81.12,228.2483 C81.12,244.1883 81.12,263.7383 81.12,282.8983 " fill="none" id="Post-to-Attach" style="stroke:#181818;stroke-width:1.0;stroke-dasharray:7.0,7.0;"/><polygon fill="#181818" points="81.12,288.8983,85.12,279.8983,81.12,283.8983,77.12,279.8983,81.12,288.8983" style="stroke:#181818;stroke-width:1.0;"/></g><!--link Follower to Retweet--><g id="link_Follower_Retweet"><path d="M283.18,119.9083 C277.1,129.4483 270.73,139.7483 265.12,149.4683 C255.82,165.5983 248.7826,179.3265 242.5426,191.9865 " fill="none" id="Follower-to-Retweet" style="stroke:#181818;stroke-width:1.0;"/><polygon fill="#181818" points="239.89,197.3683,247.4568,191.064,242.1005,192.8835,240.2811,187.5272,239.89,197.3683" style="stroke:#181818;stroke-width:1.0;"/><text fill="#000000" font-family="sans-serif" font-size="13" lengthAdjust="spacing" textLength="74" x="266.12" y="163.0366">Can retweet</text></g><!--link Follower to Like--><g id="link_Follower_Like"><path d="M330.31,119.9183 C345.38,145.5183 361.4462,172.8077 372.3662,191.3577 " fill="none" id="Follower-to-Like" style="stroke:#181818;stroke-width:1.0;"/><polygon fill="#181818" points="375.41,196.5283,374.2913,186.7432,372.8735,192.2194,367.3972,190.8016,375.41,196.5283" style="stroke:#181818;stroke-width:1.0;"/><text fill="#000000" font-family="sans-serif" font-size="13" lengthAdjust="spacing" textLength="51" x="358.12" y="163.0366">Can like</text></g><!--SRC=[LOqx2iCm341tdq9uTmxG8H02XK27KfgjYp2YCNLji1Lo_SQVriraMU-XnuOjWRnlH0oJOmgesNW72kPH2h56qXXtu-eZ0q8M9M24j6XuO4QzmFJ69pqS-p-neARUY7-ipWrUp8iEcRGGObXvyG6KwdCNJlc98d-whlz6nDbRwpSgQhs-soCw2BLrK7AlS9jA7m00]--></g></svg>