<?xml version="1.0" encoding="us-ascii" standalone="no"?><svg xmlns="http://www.w3.org/2000/svg" xmlns:xlink="http://www.w3.org/1999/xlink" contentStyleType="text/css" height="450px" preserveAspectRatio="none" style="width:1182px;height:450px;background:#FFFFFF;" version="1.1" viewBox="0 0 1182 450" width="1182px" zoomAndPan="magnify"><defs/><g><!--class User--><g id="elem_User"><rect codeLine="4" fill="#F1F1F1" height="196.3945" id="User" rx="2.5" ry="2.5" style="stroke:#181818;stroke-width:0.5;" width="247" x="387.5" y="247.42"/><ellipse cx="491.25" cy="263.42" fill="#ADD1B2" rx="11" ry="11" style="stroke:#181818;stroke-width:1.0;"/><path d="M493.7231,269.5631 Q493.1421,269.8619 492.5029,270.0113 Q491.8638,270.1607 491.1582,270.1607 Q488.6514,270.1607 487.3315,268.5089 Q486.0117,266.857 486.0117,263.7359 Q486.0117,260.6065 487.3315,258.9547 Q488.6514,257.3028 491.1582,257.3028 Q491.8638,257.3028 492.5112,257.4522 Q493.1587,257.6016 493.7231,257.9005 L493.7231,260.6231 Q493.0923,260.0421 492.4988,259.7723 Q491.9053,259.5025 491.2744,259.5025 Q489.9297,259.5025 489.2449,260.5692 Q488.5601,261.6358 488.5601,263.7359 Q488.5601,265.8277 489.2449,266.8944 Q489.9297,267.961 491.2744,267.961 Q491.9053,267.961 492.4988,267.6912 Q493.0923,267.4215 493.7231,266.8404 Z " fill="#000000"/><text fill="#000000" font-family="sans-serif" font-size="14" lengthAdjust="spacing" textLength="31" x="511.75" y="268.711">User</text><line style="stroke:#181818;stroke-width:0.5;" x1="388.5" x2="633.5" y1="279.42" y2="279.42"/><rect fill="none" height="6" style="stroke:#C82930;stroke-width:1.0;" width="6" x="395.5" y="290.1641"/><text fill="#000000" font-family="sans-serif" font-size="14" lengthAdjust="spacing" textLength="69" x="407.5" y="296.9552">userId: int</text><rect fill="none" height="6" style="stroke:#C82930;stroke-width:1.0;" width="6" x="395.5" y="306.6524"/><text fill="#000000" font-family="sans-serif" font-size="14" lengthAdjust="spacing" textLength="116" x="407.5" y="313.4434">username: string</text><rect fill="none" height="6" style="stroke:#C82930;stroke-width:1.0;" width="6" x="395.5" y="323.1407"/><text fill="#000000" font-family="sans-serif" font-size="14" lengthAdjust="spacing" textLength="85" x="407.5" y="329.9317">email: string</text><rect fill="none" height="6" style="stroke:#C82930;stroke-width:1.0;" width="6" x="395.5" y="339.629"/><text fill="#000000" font-family="sans-serif" font-size="14" lengthAdjust="spacing" textLength="114" x="407.5" y="346.42">password: string</text><rect fill="none" height="6" style="stroke:#C82930;stroke-width:1.0;" width="6" x="395.5" y="356.1173"/><text fill="#000000" font-family="sans-serif" font-size="14" lengthAdjust="spacing" textLength="221" x="407.5" y="362.9083">profilePicture: mediaAttachment</text><rect fill="none" height="6" style="stroke:#C82930;stroke-width:1.0;" width="6" x="395.5" y="372.6055"/><text fill="#000000" font-family="sans-serif" font-size="14" lengthAdjust="spacing" textLength="70" x="407.5" y="379.3966">bio: string</text><rect fill="none" height="6" style="stroke:#C82930;stroke-width:1.0;" width="6" x="395.5" y="389.0938"/><text fill="#000000" font-family="sans-serif" font-size="14" lengthAdjust="spacing" textLength="89" x="407.5" y="395.8848">followers: int</text><rect fill="none" height="6" style="stroke:#C82930;stroke-width:1.0;" width="6" x="395.5" y="405.5821"/><text fill="#000000" font-family="sans-serif" font-size="14" lengthAdjust="spacing" textLength="90" x="407.5" y="412.3731">following: int</text><rect fill="none" height="6" style="stroke:#C82930;stroke-width:1.0;" width="6" x="395.5" y="422.0704"/><text fill="#000000" font-family="sans-serif" font-size="14" lengthAdjust="spacing" textLength="65" x="407.5" y="428.8614">role: Role</text><line style="stroke:#181818;stroke-width:0.5;" x1="388.5" x2="633.5" y1="435.8145" y2="435.8145"/></g><!--class Role--><g id="elem_Role"><rect codeLine="16" fill="#F1F1F1" height="80.9766" id="Role" rx="2.5" ry="2.5" style="stroke:#181818;stroke-width:0.5;" width="140" x="187" y="305.12"/><ellipse cx="237.75" cy="321.12" fill="#ADD1B2" rx="11" ry="11" style="stroke:#181818;stroke-width:1.0;"/><path d="M240.2231,327.2631 Q239.6421,327.5619 239.0029,327.7113 Q238.3638,327.8607 237.6582,327.8607 Q235.1514,327.8607 233.8315,326.2089 Q232.5117,324.557 232.5117,321.4359 Q232.5117,318.3065 233.8315,316.6547 Q235.1514,315.0028 237.6582,315.0028 Q238.3638,315.0028 239.0112,315.1522 Q239.6587,315.3016 240.2231,315.6005 L240.2231,318.3231 Q239.5923,317.7421 238.9988,317.4723 Q238.4053,317.2025 237.7744,317.2025 Q236.4297,317.2025 235.7449,318.2692 Q235.0601,319.3358 235.0601,321.4359 Q235.0601,323.5277 235.7449,324.5944 Q236.4297,325.661 237.7744,325.661 Q238.4053,325.661 238.9988,325.3912 Q239.5923,325.1215 240.2231,324.5404 Z " fill="#000000"/><text fill="#000000" font-family="sans-serif" font-size="14" lengthAdjust="spacing" textLength="30" x="258.25" y="326.411">Role</text><line style="stroke:#181818;stroke-width:0.5;" x1="188" x2="326" y1="337.12" y2="337.12"/><rect fill="none" height="6" style="stroke:#C82930;stroke-width:1.0;" width="6" x="195" y="347.8641"/><text fill="#000000" font-family="sans-serif" font-size="14" lengthAdjust="spacing" textLength="66" x="207" y="354.6552">roleId: int</text><rect fill="none" height="6" style="stroke:#C82930;stroke-width:1.0;" width="6" x="195" y="364.3524"/><text fill="#000000" font-family="sans-serif" font-size="14" lengthAdjust="spacing" textLength="114" x="207" y="371.1434">roleName: string</text><line style="stroke:#181818;stroke-width:0.5;" x1="188" x2="326" y1="378.0966" y2="378.0966"/></g><!--class MediaType--><g id="elem_MediaType"><rect codeLine="21" fill="#F1F1F1" height="64.4883" id="MediaType" rx="2.5" ry="2.5" style="stroke:#181818;stroke-width:0.5;" width="106" x="1069" y="313.37"/><ellipse cx="1084" cy="329.37" fill="#EB937F" rx="11" ry="11" style="stroke:#181818;stroke-width:1.0;"/><path d="M1087.6143,335.87 L1079.8945,335.87 L1079.8945,323.4769 L1087.6143,323.4769 L1087.6143,325.6351 L1082.3433,325.6351 L1082.3433,328.308 L1087.1162,328.308 L1087.1162,330.4662 L1082.3433,330.4662 L1082.3433,333.7118 L1087.6143,333.7118 Z " fill="#000000"/><text fill="#000000" font-family="sans-serif" font-size="14" lengthAdjust="spacing" textLength="74" x="1098" y="334.661">MediaType</text><line style="stroke:#181818;stroke-width:0.5;" x1="1070" x2="1174" y1="345.37" y2="345.37"/><rect fill="none" height="6" style="stroke:#C82930;stroke-width:1.0;" width="6" x="1077" y="356.1141"/><text fill="#000000" font-family="sans-serif" font-size="14" lengthAdjust="spacing" textLength="44" x="1089" y="362.9052">IMAGE</text><line style="stroke:#181818;stroke-width:0.5;" x1="1070" x2="1174" y1="369.8583" y2="369.8583"/></g><!--class MediaAttachment--><g id="elem_MediaAttachment"><rect codeLine="25" fill="#F1F1F1" height="97.4648" id="MediaAttachment" rx="2.5" ry="2.5" style="stroke:#181818;stroke-width:0.5;" width="152" x="870" y="296.88"/><ellipse cx="885" cy="312.88" fill="#ADD1B2" rx="11" ry="11" style="stroke:#181818;stroke-width:1.0;"/><path d="M887.4731,319.0231 Q886.8921,319.3219 886.2529,319.4713 Q885.6138,319.6207 884.9082,319.6207 Q882.4014,319.6207 881.0815,317.9689 Q879.7617,316.317 879.7617,313.1959 Q879.7617,310.0665 881.0815,308.4147 Q882.4014,306.7628 884.9082,306.7628 Q885.6138,306.7628 886.2612,306.9122 Q886.9087,307.0616 887.4731,307.3605 L887.4731,310.0831 Q886.8423,309.5021 886.2488,309.2323 Q885.6553,308.9625 885.0244,308.9625 Q883.6797,308.9625 882.9949,310.0292 Q882.3101,311.0958 882.3101,313.1959 Q882.3101,315.2877 882.9949,316.3544 Q883.6797,317.421 885.0244,317.421 Q885.6553,317.421 886.2488,317.1512 Q886.8423,316.8815 887.4731,316.3004 Z " fill="#000000"/><text fill="#000000" font-family="sans-serif" font-size="14" lengthAdjust="spacing" textLength="120" x="899" y="318.171">MediaAttachment</text><line style="stroke:#181818;stroke-width:0.5;" x1="871" x2="1021" y1="328.88" y2="328.88"/><rect fill="none" height="6" style="stroke:#C82930;stroke-width:1.0;" width="6" x="878" y="339.6241"/><text fill="#000000" font-family="sans-serif" font-size="14" lengthAdjust="spacing" textLength="39" x="890" y="346.4152">id: int</text><rect fill="none" height="6" style="stroke:#C82930;stroke-width:1.0;" width="6" x="878" y="356.1124"/><text fill="#000000" font-family="sans-serif" font-size="14" lengthAdjust="spacing" textLength="67" x="890" y="362.9034">url: string</text><rect fill="none" height="6" style="stroke:#C82930;stroke-width:1.0;" width="6" x="878" y="372.6007"/><text fill="#000000" font-family="sans-serif" font-size="14" lengthAdjust="spacing" textLength="111" x="890" y="379.3917">type: MediaType</text><line style="stroke:#181818;stroke-width:0.5;" x1="871" x2="1021" y1="386.3448" y2="386.3448"/></g><!--class Tweet--><g id="elem_Tweet"><rect codeLine="34" fill="#F1F1F1" height="163.418" id="Tweet" rx="2.5" ry="2.5" style="stroke:#181818;stroke-width:0.5;" width="231" x="515.5" y="7"/><ellipse cx="606.25" cy="23" fill="#ADD1B2" rx="11" ry="11" style="stroke:#181818;stroke-width:1.0;"/><path d="M608.7231,29.1431 Q608.1421,29.4419 607.5029,29.5913 Q606.8638,29.7407 606.1582,29.7407 Q603.6514,29.7407 602.3315,28.0889 Q601.0117,26.437 601.0117,23.3159 Q601.0117,20.1865 602.3315,18.5347 Q603.6514,16.8828 606.1582,16.8828 Q606.8638,16.8828 607.5112,17.0322 Q608.1587,17.1816 608.7231,17.4805 L608.7231,20.2031 Q608.0923,19.6221 607.4988,19.3523 Q606.9053,19.0825 606.2744,19.0825 Q604.9297,19.0825 604.2449,20.1492 Q603.5601,21.2158 603.5601,23.3159 Q603.5601,25.4077 604.2449,26.4744 Q604.9297,27.541 606.2744,27.541 Q606.9053,27.541 607.4988,27.2712 Q608.0923,27.0015 608.7231,26.4204 Z " fill="#000000"/><text fill="#000000" font-family="sans-serif" font-size="14" lengthAdjust="spacing" textLength="41" x="626.75" y="28.291">Tweet</text><line style="stroke:#181818;stroke-width:0.5;" x1="516.5" x2="745.5" y1="39" y2="39"/><rect fill="none" height="6" style="stroke:#C82930;stroke-width:1.0;" width="6" x="523.5" y="49.7441"/><text fill="#000000" font-family="sans-serif" font-size="14" lengthAdjust="spacing" textLength="76" x="535.5" y="56.5352">tweetId: int</text><rect fill="none" height="6" style="stroke:#C82930;stroke-width:1.0;" width="6" x="523.5" y="66.2324"/><text fill="#000000" font-family="sans-serif" font-size="14" lengthAdjust="spacing" textLength="100" x="535.5" y="73.0234">content: string</text><rect fill="none" height="6" style="stroke:#C82930;stroke-width:1.0;" width="6" x="523.5" y="82.7207"/><text fill="#000000" font-family="sans-serif" font-size="14" lengthAdjust="spacing" textLength="140" x="535.5" y="89.5117">timestamp: datetime</text><rect fill="none" height="6" style="stroke:#C82930;stroke-width:1.0;" width="6" x="523.5" y="99.209"/><text fill="#000000" font-family="sans-serif" font-size="14" lengthAdjust="spacing" textLength="57" x="535.5" y="106">likes: int</text><rect fill="none" height="6" style="stroke:#C82930;stroke-width:1.0;" width="6" x="523.5" y="115.6973"/><text fill="#000000" font-family="sans-serif" font-size="14" lengthAdjust="spacing" textLength="84" x="535.5" y="122.4883">retweets: int</text><rect fill="none" height="6" style="stroke:#C82930;stroke-width:1.0;" width="6" x="523.5" y="132.1855"/><text fill="#000000" font-family="sans-serif" font-size="14" lengthAdjust="spacing" textLength="72" x="535.5" y="138.9766">replies: int</text><rect fill="none" height="6" style="stroke:#C82930;stroke-width:1.0;" width="6" x="523.5" y="148.6738"/><text fill="#000000" font-family="sans-serif" font-size="14" lengthAdjust="spacing" textLength="205" x="535.5" y="155.4648">attachment: MediaAttachment</text><line style="stroke:#181818;stroke-width:0.5;" x1="516.5" x2="745.5" y1="162.418" y2="162.418"/></g><!--class Reply--><g id="elem_Reply"><rect codeLine="44" fill="#F1F1F1" height="80.9766" id="Reply" rx="2.5" ry="2.5" style="stroke:#181818;stroke-width:0.5;" width="159" x="838.5" y="48.22"/><ellipse cx="895.25" cy="64.22" fill="#ADD1B2" rx="11" ry="11" style="stroke:#181818;stroke-width:1.0;"/><path d="M897.7231,70.3631 Q897.1421,70.6619 896.5029,70.8113 Q895.8638,70.9607 895.1582,70.9607 Q892.6514,70.9607 891.3315,69.3089 Q890.0117,67.657 890.0117,64.5359 Q890.0117,61.4065 891.3315,59.7547 Q892.6514,58.1028 895.1582,58.1028 Q895.8638,58.1028 896.5112,58.2522 Q897.1587,58.4016 897.7231,58.7005 L897.7231,61.4231 Q897.0923,60.8421 896.4988,60.5723 Q895.9053,60.3025 895.2744,60.3025 Q893.9297,60.3025 893.2449,61.3692 Q892.5601,62.4358 892.5601,64.5359 Q892.5601,66.6277 893.2449,67.6944 Q893.9297,68.761 895.2744,68.761 Q895.9053,68.761 896.4988,68.4912 Q897.0923,68.2215 897.7231,67.6404 Z " fill="#000000"/><text fill="#000000" font-family="sans-serif" font-size="14" lengthAdjust="spacing" textLength="37" x="915.75" y="69.511">Reply</text><line style="stroke:#181818;stroke-width:0.5;" x1="839.5" x2="996.5" y1="80.22" y2="80.22"/><rect fill="none" height="6" style="stroke:#C82930;stroke-width:1.0;" width="6" x="846.5" y="90.9641"/><text fill="#000000" font-family="sans-serif" font-size="14" lengthAdjust="spacing" textLength="133" x="858.5" y="97.7552">originalTweetId: int</text><rect fill="none" height="6" style="stroke:#C82930;stroke-width:1.0;" width="6" x="846.5" y="107.4524"/><text fill="#000000" font-family="sans-serif" font-size="14" lengthAdjust="spacing" textLength="114" x="858.5" y="114.2434">replyTweetId: int</text><line style="stroke:#181818;stroke-width:0.5;" x1="839.5" x2="996.5" y1="121.1966" y2="121.1966"/></g><!--class Hashtag--><g id="elem_Hashtag"><rect codeLine="52" fill="#F1F1F1" height="80.9766" id="Hashtag" rx="2.5" ry="2.5" style="stroke:#181818;stroke-width:0.5;" width="160" x="263" y="48.22"/><ellipse cx="310.75" cy="64.22" fill="#ADD1B2" rx="11" ry="11" style="stroke:#181818;stroke-width:1.0;"/><path d="M313.2231,70.3631 Q312.6421,70.6619 312.0029,70.8113 Q311.3638,70.9607 310.6582,70.9607 Q308.1514,70.9607 306.8315,69.3089 Q305.5117,67.657 305.5117,64.5359 Q305.5117,61.4065 306.8315,59.7547 Q308.1514,58.1028 310.6582,58.1028 Q311.3638,58.1028 312.0112,58.2522 Q312.6587,58.4016 313.2231,58.7005 L313.2231,61.4231 Q312.5923,60.8421 311.9988,60.5723 Q311.4053,60.3025 310.7744,60.3025 Q309.4297,60.3025 308.7449,61.3692 Q308.0601,62.4358 308.0601,64.5359 Q308.0601,66.6277 308.7449,67.6944 Q309.4297,68.761 310.7744,68.761 Q311.4053,68.761 311.9988,68.4912 Q312.5923,68.2215 313.2231,67.6404 Z " fill="#000000"/><text fill="#000000" font-family="sans-serif" font-size="14" lengthAdjust="spacing" textLength="56" x="331.25" y="69.511">Hashtag</text><line style="stroke:#181818;stroke-width:0.5;" x1="264" x2="422" y1="80.22" y2="80.22"/><rect fill="none" height="6" style="stroke:#C82930;stroke-width:1.0;" width="6" x="271" y="90.9641"/><text fill="#000000" font-family="sans-serif" font-size="14" lengthAdjust="spacing" textLength="94" x="283" y="97.7552">hashtagId: int</text><rect fill="none" height="6" style="stroke:#C82930;stroke-width:1.0;" width="6" x="271" y="107.4524"/><text fill="#000000" font-family="sans-serif" font-size="14" lengthAdjust="spacing" textLength="134" x="283" y="114.2434">hashtagText: string</text><line style="stroke:#181818;stroke-width:0.5;" x1="264" x2="422" y1="121.1966" y2="121.1966"/></g><!--class HashtagStatistic--><g id="elem_HashtagStatistic"><rect codeLine="57" fill="#F1F1F1" height="97.4648" id="HashtagStatistic" rx="2.5" ry="2.5" style="stroke:#181818;stroke-width:0.5;" width="196" x="7" y="39.97"/><ellipse cx="46.75" cy="55.97" fill="#ADD1B2" rx="11" ry="11" style="stroke:#181818;stroke-width:1.0;"/><path d="M49.2231,62.1131 Q48.6421,62.4119 48.0029,62.5613 Q47.3638,62.7107 46.6582,62.7107 Q44.1514,62.7107 42.8315,61.0589 Q41.5117,59.407 41.5117,56.2859 Q41.5117,53.1565 42.8315,51.5047 Q44.1514,49.8528 46.6582,49.8528 Q47.3638,49.8528 48.0112,50.0022 Q48.6587,50.1516 49.2231,50.4505 L49.2231,53.1731 Q48.5923,52.5921 47.9988,52.3223 Q47.4053,52.0525 46.7744,52.0525 Q45.4297,52.0525 44.7449,53.1192 Q44.0601,54.1858 44.0601,56.2859 Q44.0601,58.3777 44.7449,59.4444 Q45.4297,60.511 46.7744,60.511 Q47.4053,60.511 47.9988,60.2412 Q48.5923,59.9715 49.2231,59.3904 Z " fill="#000000"/><text fill="#000000" font-family="sans-serif" font-size="14" lengthAdjust="spacing" textLength="109" x="66.25" y="61.261">HashtagStatistic</text><line style="stroke:#181818;stroke-width:0.5;" x1="8" x2="202" y1="71.97" y2="71.97"/><rect fill="none" height="6" style="stroke:#C82930;stroke-width:1.0;" width="6" x="15" y="82.7141"/><text fill="#000000" font-family="sans-serif" font-size="14" lengthAdjust="spacing" textLength="94" x="27" y="89.5052">hashtagId: int</text><rect fill="none" height="6" style="stroke:#C82930;stroke-width:1.0;" width="6" x="15" y="99.2024"/><text fill="#000000" font-family="sans-serif" font-size="14" lengthAdjust="spacing" textLength="65" x="27" y="105.9934">count: int</text><rect fill="none" height="6" style="stroke:#C82930;stroke-width:1.0;" width="6" x="15" y="115.6907"/><text fill="#000000" font-family="sans-serif" font-size="14" lengthAdjust="spacing" textLength="170" x="27" y="122.4817">relatedHashtags: List[int]</text><line style="stroke:#181818;stroke-width:0.5;" x1="8" x2="202" y1="129.4348" y2="129.4348"/></g><!--link Tweet to User--><g id="link_Tweet_User"><path codeLine="64" d="M592.87,170.71 C581.41,195.06 568.71,222.02 556.81,247.31 " fill="none" id="Tweet-User" style="stroke:#181818;stroke-width:1.0;"/><text fill="#000000" font-family="sans-serif" font-size="13" lengthAdjust="spacing" textLength="34" x="579" y="213.9884">Posts</text><text fill="#000000" font-family="sans-serif" font-size="13" lengthAdjust="spacing" textLength="26" x="562.476" y="190.9832">0...*</text><text fill="#000000" font-family="sans-serif" font-size="13" lengthAdjust="spacing" textLength="8" x="552.0111" y="236.7894">1</text></g><!--link User to User--><g id="link_User_User"><path codeLine="66" d="M634.94,333.73 C655.4,335.41 669.5,339.37 669.5,345.61 C669.5,351.85 655.4,355.82 634.94,357.5 " fill="none" id="User-User" style="stroke:#181818;stroke-width:1.0;"/><text fill="#000000" font-family="sans-serif" font-size="13" lengthAdjust="spacing" textLength="48" x="675.5" y="350.6784">Follows</text><text fill="#000000" font-family="sans-serif" font-size="13" lengthAdjust="spacing" textLength="8" x="642.3365" y="330.1865">1</text><text fill="#000000" font-family="sans-serif" font-size="13" lengthAdjust="spacing" textLength="26" x="642.4289" y="355.3165">0...*</text></g><!--link User to User--><g id="link_User_User"><path codeLine="67" d="M634.79,320.1 C685.56,318.85 729.5,327.36 729.5,345.61 C729.5,363.87 685.56,372.37 634.79,371.12 " fill="none" id="User-User-1" style="stroke:#181818;stroke-width:1.0;"/><text fill="#000000" font-family="sans-serif" font-size="13" lengthAdjust="spacing" textLength="67" x="735.5" y="350.6784">IsFollowed</text><text fill="#000000" font-family="sans-serif" font-size="13" lengthAdjust="spacing" textLength="8" x="642.5772" y="315.6658">1</text><text fill="#000000" font-family="sans-serif" font-size="13" lengthAdjust="spacing" textLength="26" x="642.6982" y="385.6053">0...*</text></g><!--link Role to User--><g id="link_Role_User"><path codeLine="69" d="M327.42,345.61 C346.06,345.61 366.75,345.61 387.33,345.61 " fill="none" id="Role-User" style="stroke:#181818;stroke-width:1.0;"/><text fill="#000000" font-family="sans-serif" font-size="13" lengthAdjust="spacing" textLength="24" x="345.25" y="339.1784">Has</text><text fill="#000000" font-family="sans-serif" font-size="13" lengthAdjust="spacing" textLength="8" x="335.0946" y="342.4211">1</text><text fill="#000000" font-family="sans-serif" font-size="13" lengthAdjust="spacing" textLength="8" x="371.5501" y="342.7303">1</text></g><!--link User to MediaAttachment--><g id="link_User_MediaAttachment"><path codeLine="70" d="M634.78,345.61 C710.38,345.61 804.65,345.61 869.51,345.61 " fill="none" id="User-MediaAttachment" style="stroke:#181818;stroke-width:1.0;"/><text fill="#000000" font-family="sans-serif" font-size="13" lengthAdjust="spacing" textLength="24" x="740.25" y="339.1784">Has</text><text fill="#000000" font-family="sans-serif" font-size="13" lengthAdjust="spacing" textLength="8" x="642.5666" y="342.7303">1</text><text fill="#000000" font-family="sans-serif" font-size="13" lengthAdjust="spacing" textLength="8" x="854.0898" y="342.501">1</text></g><!--link MediaAttachment to MediaType--><g id="link_MediaAttachment_MediaType"><path codeLine="72" d="M1022.43,345.61 C1038.01,345.61 1054.09,345.61 1068.66,345.61 " fill="none" id="MediaAttachment-MediaType" style="stroke:#181818;stroke-width:1.0;"/><text fill="#000000" font-family="sans-serif" font-size="13" lengthAdjust="spacing" textLength="11" x="1040" y="339.1784">Is</text><text fill="#000000" font-family="sans-serif" font-size="13" lengthAdjust="spacing" textLength="8" x="1030.096" y="342.4781">1</text><text fill="#000000" font-family="sans-serif" font-size="13" lengthAdjust="spacing" textLength="8" x="1052.9549" y="342.1909">1</text></g><!--link Hashtag to Tweet--><g id="link_Hashtag_Tweet"><path codeLine="74" d="M423.22,88.71 C451.69,88.71 484.31,88.71 515.15,88.71 " fill="none" id="Hashtag-Tweet" style="stroke:#181818;stroke-width:1.0;"/><text fill="#000000" font-family="sans-serif" font-size="13" lengthAdjust="spacing" textLength="56" x="441.25" y="82.2784">Contains</text><text fill="#000000" font-family="sans-serif" font-size="13" lengthAdjust="spacing" textLength="26" x="430.9398" y="101.9125">0...*</text><text fill="#000000" font-family="sans-serif" font-size="13" lengthAdjust="spacing" textLength="22" x="485.4201" y="101.7449">0..*</text></g><!--link Tweet to Reply--><g id="link_Tweet_Reply"><path codeLine="75" d="M746.91,88.71 C777.55,88.71 809.95,88.71 838.2,88.71 " fill="none" id="Tweet-Reply" style="stroke:#181818;stroke-width:1.0;"/><text fill="#000000" font-family="sans-serif" font-size="13" lengthAdjust="spacing" textLength="56" x="764.5" y="82.2784">Contains</text><text fill="#000000" font-family="sans-serif" font-size="13" lengthAdjust="spacing" textLength="8" x="754.5917" y="85.8079">1</text><text fill="#000000" font-family="sans-serif" font-size="13" lengthAdjust="spacing" textLength="26" x="804.515" y="101.9125">0...*</text></g><!--link User to Hashtag--><g id="link_User_Hashtag"><path codeLine="76" d="M446.71,247.06 C419.77,206.19 389.97,160.97 369.25,129.54 " fill="none" id="User-Hashtag" style="stroke:#181818;stroke-width:1.0;"/><text fill="#000000" font-family="sans-serif" font-size="13" lengthAdjust="spacing" textLength="48" x="428" y="213.9884">Follows</text><text fill="#000000" font-family="sans-serif" font-size="13" lengthAdjust="spacing" textLength="22" x="418.9456" y="236.5202">0..*</text><text fill="#000000" font-family="sans-serif" font-size="13" lengthAdjust="spacing" textLength="26" x="345.3617" y="149.836">0...*</text></g><!--link HashtagStatistic to Hashtag--><g id="link_HashtagStatistic_Hashtag"><path codeLine="78" d="M203.18,88.71 C223.02,88.71 243.67,88.71 262.81,88.71 " fill="none" id="HashtagStatistic-Hashtag" style="stroke:#181818;stroke-width:1.0;"/><text fill="#000000" font-family="sans-serif" font-size="13" lengthAdjust="spacing" textLength="24" x="221" y="82.2784">Has</text><text fill="#000000" font-family="sans-serif" font-size="13" lengthAdjust="spacing" textLength="8" x="211.0032" y="85.7166">1</text><text fill="#000000" font-family="sans-serif" font-size="13" lengthAdjust="spacing" textLength="8" x="247.0487" y="85.6014">1</text></g><!--SRC=[XLDDYzim4BtxLuXS5XOIkbVTGccxWKrPkkwfzA3Q4qTKjemq9XjA_tj77xObPUdc439FJq_lpKpks7SBXksxpa0d4AggKSBQWFwf67ssRABYq78c1qoGGVJ0cKKZXox2q0kf2cmakOisRGaRVP8AdcM3ao6T7befzeYYEVUmlFDBwkBUIIkbBs1iQYU0H4f1enNfVgFlwkySorLBB4V8OpdaQngBBi8mzUpetDNNSRryEEw_V5g5ZxdzXIRpjfcoEqYQV9LtWjKTgoy0U3kK0C_IwAhSVwC7fDVBDsGF5aK_SjQIcYlZYPA_8Mka0QzQOAEIEKqiGNcPFEartRikRhMHdHo4gczTkmUk6Hwwy2Zi6KLtsuVvODO-XpfNZM0DhvYECrDuGO7Iecp-BzNeoILD7IkoqqOLQiqJgVoWyv_Ukl_pR1usR3kDMxRviDljxZTnUfmzQuis9RNwCgmqZtFssQ-qVOzsi848RQgeu8HR_zClF7TvasCQnJcU5zCBpAhSvZTlrNvr3qGFoPop-_Nnw7EU5MSVQJc57EnCJpKZsQzCmWoMe-vRcdENgXagufTp3ld-0G00]--></g></svg>