<?xml version="1.0" encoding="us-ascii" standalone="no"?><svg xmlns="http://www.w3.org/2000/svg" xmlns:xlink="http://www.w3.org/1999/xlink" contentStyleType="text/css" height="549px" preserveAspectRatio="none" style="width:590px;height:549px;background:#FFFFFF;" version="1.1" viewBox="0 0 590 549" width="590px" zoomAndPan="magnify"><defs/><g><text fill="#000000" font-family="sans-serif" font-size="14" font-weight="bold" lengthAdjust="spacing" textLength="153" x="211.5" y="23.5352">Deployment Diagram</text><!--cluster Application Server--><g id="cluster_Application Server"><polygon fill="none" points="16,181.9783,26,171.9783,358,171.9783,358,519.4383,348,529.4383,16,529.4383,16,181.9783" style="stroke:#181818;stroke-width:1.0;"/><line style="stroke:#181818;stroke-width:1.0;" x1="348" x2="358" y1="181.9783" y2="171.9783"/><line style="stroke:#181818;stroke-width:1.0;" x1="16" x2="348" y1="181.9783" y2="181.9783"/><line style="stroke:#181818;stroke-width:1.0;" x1="348" x2="348" y1="181.9783" y2="529.4383"/><text fill="#000000" font-family="sans-serif" font-size="14" font-weight="bold" lengthAdjust="spacing" textLength="131" x="117.5" y="198.5134">Application Server</text></g><!--cluster Database Server--><g id="cluster_Database Server"><polygon fill="none" points="382,440.9483,392,430.9483,573,430.9483,573,522.4383,563,532.4383,382,532.4383,382,440.9483" style="stroke:#181818;stroke-width:1.0;"/><line style="stroke:#181818;stroke-width:1.0;" x1="563" x2="573" y1="440.9483" y2="430.9483"/><line style="stroke:#181818;stroke-width:1.0;" x1="382" x2="563" y1="440.9483" y2="440.9483"/><line style="stroke:#181818;stroke-width:1.0;" x1="563" x2="563" y1="440.9483" y2="532.4383"/><text fill="#000000" font-family="sans-serif" font-size="14" font-weight="bold" lengthAdjust="spacing" textLength="115" x="416" y="457.4834">Database Server</text></g><!--cluster Client--><g id="cluster_Client"><polygon fill="none" points="122,53.4883,132,43.4883,272,43.4883,272,128.9783,262,138.9783,122,138.9783,122,53.4883" style="stroke:#181818;stroke-width:1.0;"/><line style="stroke:#181818;stroke-width:1.0;" x1="262" x2="272" y1="53.4883" y2="43.4883"/><line style="stroke:#181818;stroke-width:1.0;" x1="122" x2="262" y1="53.4883" y2="53.4883"/><line style="stroke:#181818;stroke-width:1.0;" x1="262" x2="262" y1="53.4883" y2="138.9783"/><text fill="#000000" font-family="sans-serif" font-size="14" font-weight="bold" lengthAdjust="spacing" textLength="43" x="171.5" y="70.0234">Client</text></g><!--entity frontend--><g id="elem_frontend"><rect fill="#F1F1F1" height="39.4883" rx="2.5" ry="2.5" style="stroke:#181818;stroke-width:0.5;" width="93" x="150.5" y="211.9783"/><polygon fill="#F1F1F1" points="226.5,216.9783,226.5,230.9783,238.5,230.9783,238.5,222.9783,232.5,216.9783,226.5,216.9783" style="stroke:#181818;stroke-width:0.5;"/><line style="stroke:#181818;stroke-width:0.5;" x1="232.5" x2="232.5" y1="216.9783" y2="222.9783"/><line style="stroke:#181818;stroke-width:0.5;" x1="238.5" x2="232.5" y1="222.9783" y2="222.9783"/><text fill="#000000" font-family="sans-serif" font-size="14" lengthAdjust="spacing" textLength="63" x="160.5" y="238.5134">Frontend</text></g><!--entity backend--><g id="elem_backend"><rect fill="#F1F1F1" height="39.4883" rx="2.5" ry="2.5" style="stroke:#181818;stroke-width:0.5;" width="87" x="255.5" y="328.4583"/><polygon fill="#F1F1F1" points="325.5,333.4583,325.5,347.4583,337.5,347.4583,337.5,339.4583,331.5,333.4583,325.5,333.4583" style="stroke:#181818;stroke-width:0.5;"/><line style="stroke:#181818;stroke-width:0.5;" x1="331.5" x2="331.5" y1="333.4583" y2="339.4583"/><line style="stroke:#181818;stroke-width:0.5;" x1="337.5" x2="331.5" y1="339.4583" y2="339.4583"/><text fill="#000000" font-family="sans-serif" font-size="14" lengthAdjust="spacing" textLength="57" x="265.5" y="354.9934">Backend</text></g><!--entity auth--><g id="elem_auth"><rect fill="#F1F1F1" height="39.4883" rx="2.5" ry="2.5" style="stroke:#181818;stroke-width:0.5;" width="63" x="165.5" y="473.9483"/><polygon fill="#F1F1F1" points="211.5,478.9483,211.5,492.9483,223.5,492.9483,223.5,484.9483,217.5,478.9483,211.5,478.9483" style="stroke:#181818;stroke-width:0.5;"/><line style="stroke:#181818;stroke-width:0.5;" x1="217.5" x2="217.5" y1="478.9483" y2="484.9483"/><line style="stroke:#181818;stroke-width:0.5;" x1="223.5" x2="217.5" y1="484.9483" y2="484.9483"/><text fill="#000000" font-family="sans-serif" font-size="14" lengthAdjust="spacing" textLength="33" x="175.5" y="500.4834">Auth</text></g><!--entity db--><g id="elem_db"><path d="M398.5,480.9483 C398.5,470.9483 440,470.9483 440,470.9483 C440,470.9483 481.5,470.9483 481.5,480.9483 L481.5,506.4366 C481.5,516.4366 440,516.4366 440,516.4366 C440,516.4366 398.5,516.4366 398.5,506.4366 L398.5,480.9483 " fill="#F1F1F1" style="stroke:#181818;stroke-width:0.5;"/><path d="M398.5,480.9483 C398.5,490.9483 440,490.9483 440,490.9483 C440,490.9483 481.5,490.9483 481.5,480.9483 " fill="none" style="stroke:#181818;stroke-width:0.5;"/><text fill="#000000" font-family="sans-serif" font-size="14" lengthAdjust="spacing" textLength="63" x="408.5" y="508.4834">Database</text></g><!--entity browser--><g id="elem_browser"><rect fill="#F1F1F1" height="39.4883" rx="2.5" ry="2.5" style="stroke:#181818;stroke-width:0.5;" width="118" x="138" y="83.4883"/><polygon fill="#F1F1F1" points="239,88.4883,239,102.4883,251,102.4883,251,94.4883,245,88.4883,239,88.4883" style="stroke:#181818;stroke-width:0.5;"/><line style="stroke:#181818;stroke-width:0.5;" x1="245" x2="245" y1="88.4883" y2="94.4883"/><line style="stroke:#181818;stroke-width:0.5;" x1="251" x2="245" y1="94.4883" y2="94.4883"/><text fill="#000000" font-family="sans-serif" font-size="14" lengthAdjust="spacing" textLength="88" x="148" y="110.0234">Web Browser</text></g><!--link browser to frontend--><g id="link_browser_frontend"><path d="M197,123.4383 C197,147.3483 197,181.9383 197,205.7383 " fill="none" id="browser-to-frontend" style="stroke:#181818;stroke-width:1.0;"/><polygon fill="#181818" points="197,211.7383,201,202.7383,197,206.7383,193,202.7383,197,211.7383" style="stroke:#181818;stroke-width:1.0;"/></g><!--link frontend to auth--><g id="link_frontend_auth"><path d="M195.56,251.6883 C194.95,260.6983 194.3,271.6283 194,281.4583 C192.18,340.7583 192.86,355.6283 194,414.9483 C194.39,434.9383 195.0557,451.8046 195.7757,467.5346 " fill="none" id="frontend-to-auth" style="stroke:#181818;stroke-width:1.0;"/><polygon fill="#181818" points="196.05,473.5283,199.6343,464.3548,195.8214,468.5335,191.6427,464.7206,196.05,473.5283" style="stroke:#181818;stroke-width:1.0;"/><text fill="#000000" font-family="sans-serif" font-size="13" lengthAdjust="spacing" textLength="40" x="194" y="353.2766">HTTPS</text></g><!--link auth to frontend--><g id="link_auth_frontend"><path d="M182.84,473.4683 C162.2,443.0383 127.78,381.7783 142,328.4583 C149.71,299.5683 164.9113,275.1836 178.3713,256.7536 " fill="none" id="auth-to-frontend" style="stroke:#181818;stroke-width:1.0;"/><polygon fill="#181818" points="181.91,251.9083,173.3717,256.8172,178.9611,255.9461,179.8322,261.5355,181.91,251.9083" style="stroke:#181818;stroke-width:1.0;"/><text fill="#000000" font-family="sans-serif" font-size="13" lengthAdjust="spacing" textLength="40" x="143" y="353.2766">HTTPS</text></g><!--link frontend to backend--><g id="link_frontend_backend"><path d="M227.09,251.8683 C238.56,260.0883 251.22,270.3483 261,281.4583 C273.37,295.5083 281.0844,308.8032 287.8344,322.6732 " fill="none" id="frontend-to-backend" style="stroke:#181818;stroke-width:1.0;"/><polygon fill="#181818" points="290.46,328.0683,290.1184,318.2254,288.272,323.5724,282.925,321.7261,290.46,328.0683" style="stroke:#181818;stroke-width:1.0;"/><text fill="#000000" font-family="sans-serif" font-size="13" lengthAdjust="spacing" textLength="40" x="274" y="295.0266">HTTPS</text></g><!--link backend to frontend--><g id="link_backend_frontend"><path d="M255.12,331.9383 C239,324.2583 222.02,313.3383 211,298.4583 C201,284.9583 198.1887,271.8269 197.3187,257.6969 " fill="none" id="backend-to-frontend" style="stroke:#181818;stroke-width:1.0;"/><polygon fill="#181818" points="196.95,251.7083,193.5107,260.9371,197.2573,256.6988,201.4955,260.4455,196.95,251.7083" style="stroke:#181818;stroke-width:1.0;"/><text fill="#000000" font-family="sans-serif" font-size="13" lengthAdjust="spacing" textLength="40" x="212" y="295.0266">HTTPS</text></g><!--link backend to auth--><g id="link_backend_auth"><path d="M288.99,368.4183 C281.75,381.8083 271.44,399.8883 261,414.9483 C246.45,435.9183 231.6354,453.7467 218.1954,469.0767 " fill="none" id="backend-to-auth" style="stroke:#181818;stroke-width:1.0;"/><polygon fill="#181818" points="214.24,473.5883,223.1809,469.4578,217.5362,469.8286,217.1653,464.1839,214.24,473.5883" style="stroke:#181818;stroke-width:1.0;"/><text fill="#000000" font-family="sans-serif" font-size="13" lengthAdjust="spacing" textLength="40" x="272" y="411.5166">HTTPS</text></g><!--link auth to backend--><g id="link_auth_backend"><path d="M195.11,473.4683 C194.09,452.9483 195.47,420.3683 211,397.9483 C221.64,382.5883 233.326,374.0922 249.646,366.4522 " fill="none" id="auth-to-backend" style="stroke:#181818;stroke-width:1.0;"/><polygon fill="#181818" points="255.08,363.9083,245.233,364.1014,250.5516,366.0282,248.6249,371.3468,255.08,363.9083" style="stroke:#181818;stroke-width:1.0;"/><text fill="#000000" font-family="sans-serif" font-size="13" lengthAdjust="spacing" textLength="40" x="212" y="411.5166">HTTPS</text></g><!--link backend to db--><g id="link_backend_db"><path d="M317.72,368.2583 C343.79,394.7883 386.705,438.4584 414.215,466.4584 " fill="none" id="backend-to-db" style="stroke:#181818;stroke-width:1.0;"/><polygon fill="#181818" points="418.42,470.7383,414.9657,461.515,414.9158,467.1717,409.2592,467.1217,418.42,470.7383" style="stroke:#181818;stroke-width:1.0;"/><text fill="#000000" font-family="sans-serif" font-size="13" lengthAdjust="spacing" textLength="24" x="362" y="411.5166">SQL</text></g><!--SRC=[RKyx3i8m3Drp2gjxBy2015I8WG5K96QdSI6YJQhKW13YxlINbbHix-FdPxFcWY2Xgh2laWn3el7Yi1J2M4KGhQggq1cojWPISWzo4Rm503hMEMOCqTPPmsHK15X3Ff1WOetPpG_87WV-wixNpiG6Y8-lJf1HOar1h_BYQ7T99QVSfj3D8_CppoHXxUopRZUrX_IuZGqGudWvFI0ywkJsCbZ0xdGwfA8ZlyEZ4uQ6NqVNyx_HN_D_stnT456oqTFZNdm1]--></g></svg>