<?xml version="1.0" encoding="us-ascii" standalone="no"?><svg xmlns="http://www.w3.org/2000/svg" xmlns:xlink="http://www.w3.org/1999/xlink" contentStyleType="text/css" height="523px" preserveAspectRatio="none" style="width:375px;height:523px;background:#FFFFFF;" version="1.1" viewBox="0 0 375 523" width="375px" zoomAndPan="magnify"><defs/><g><text fill="#000000" font-family="sans-serif" font-size="14" font-weight="bold" lengthAdjust="spacing" textLength="153" x="104" y="23.5352">Deployment Diagram</text><!--cluster Client--><g id="cluster_Client"><polygon fill="none" points="98,53.4883,108,43.4883,248,43.4883,248,128.9783,238,138.9783,98,138.9783,98,53.4883" style="stroke:#181818;stroke-width:1.0;"/><line style="stroke:#181818;stroke-width:1.0;" x1="238" x2="248" y1="53.4883" y2="43.4883"/><line style="stroke:#181818;stroke-width:1.0;" x1="98" x2="238" y1="53.4883" y2="53.4883"/><line style="stroke:#181818;stroke-width:1.0;" x1="238" x2="238" y1="53.4883" y2="138.9783"/><text fill="#000000" font-family="sans-serif" font-size="14" font-weight="bold" lengthAdjust="spacing" textLength="43" x="147.5" y="70.0234">Client</text></g><!--cluster Private Network--><g id="cluster_Private Network"><polygon fill="none" points="16,181.9783,26,171.9783,358,171.9783,358,496.4383,348,506.4383,16,506.4383,16,181.9783" style="stroke:#181818;stroke-width:1.0;"/><line style="stroke:#181818;stroke-width:1.0;" x1="348" x2="358" y1="181.9783" y2="171.9783"/><line style="stroke:#181818;stroke-width:1.0;" x1="16" x2="348" y1="181.9783" y2="181.9783"/><line style="stroke:#181818;stroke-width:1.0;" x1="348" x2="348" y1="181.9783" y2="506.4383"/><text fill="#000000" font-family="sans-serif" font-size="14" font-weight="bold" lengthAdjust="spacing" textLength="116" x="125" y="198.5134">Private Network</text></g><!--entity browser--><g id="elem_browser"><rect fill="#F1F1F1" height="39.4883" rx="2.5" ry="2.5" style="stroke:#181818;stroke-width:0.5;" width="118" x="114" y="83.4883"/><polygon fill="#F1F1F1" points="215,88.4883,215,102.4883,227,102.4883,227,94.4883,221,88.4883,215,88.4883" style="stroke:#181818;stroke-width:0.5;"/><line style="stroke:#181818;stroke-width:0.5;" x1="221" x2="221" y1="88.4883" y2="94.4883"/><line style="stroke:#181818;stroke-width:0.5;" x1="227" x2="221" y1="94.4883" y2="94.4883"/><text fill="#000000" font-family="sans-serif" font-size="14" lengthAdjust="spacing" textLength="88" x="124" y="110.0234">Web Browser</text></g><!--entity frontend--><g id="elem_frontend"><rect fill="#F1F1F1" height="39.4883" rx="2.5" ry="2.5" style="stroke:#181818;stroke-width:0.5;" width="93" x="126.5" y="211.9783"/><polygon fill="#F1F1F1" points="202.5,216.9783,202.5,230.9783,214.5,230.9783,214.5,222.9783,208.5,216.9783,202.5,216.9783" style="stroke:#181818;stroke-width:0.5;"/><line style="stroke:#181818;stroke-width:0.5;" x1="208.5" x2="208.5" y1="216.9783" y2="222.9783"/><line style="stroke:#181818;stroke-width:0.5;" x1="214.5" x2="208.5" y1="222.9783" y2="222.9783"/><text fill="#000000" font-family="sans-serif" font-size="14" lengthAdjust="spacing" textLength="63" x="136.5" y="238.5134">Frontend</text></g><!--entity backend--><g id="elem_backend"><rect fill="#F1F1F1" height="39.4883" rx="2.5" ry="2.5" style="stroke:#181818;stroke-width:0.5;" width="87" x="31.5" y="328.4583"/><polygon fill="#F1F1F1" points="101.5,333.4583,101.5,347.4583,113.5,347.4583,113.5,339.4583,107.5,333.4583,101.5,333.4583" style="stroke:#181818;stroke-width:0.5;"/><line style="stroke:#181818;stroke-width:0.5;" x1="107.5" x2="107.5" y1="333.4583" y2="339.4583"/><line style="stroke:#181818;stroke-width:0.5;" x1="113.5" x2="107.5" y1="339.4583" y2="339.4583"/><text fill="#000000" font-family="sans-serif" font-size="14" lengthAdjust="spacing" textLength="57" x="41.5" y="354.9934">Backend</text></g><!--entity auth--><g id="elem_auth"><rect fill="#F1F1F1" height="39.4883" rx="2.5" ry="2.5" style="stroke:#181818;stroke-width:0.5;" width="63" x="207.5" y="447.9483"/><polygon fill="#F1F1F1" points="253.5,452.9483,253.5,466.9483,265.5,466.9483,265.5,458.9483,259.5,452.9483,253.5,452.9483" style="stroke:#181818;stroke-width:0.5;"/><line style="stroke:#181818;stroke-width:0.5;" x1="259.5" x2="259.5" y1="452.9483" y2="458.9483"/><line style="stroke:#181818;stroke-width:0.5;" x1="265.5" x2="259.5" y1="458.9483" y2="458.9483"/><text fill="#000000" font-family="sans-serif" font-size="14" lengthAdjust="spacing" textLength="33" x="217.5" y="474.4834">Auth</text></g><!--entity db--><g id="elem_db"><path d="M32.5,454.9483 C32.5,444.9483 74,444.9483 74,444.9483 C74,444.9483 115.5,444.9483 115.5,454.9483 L115.5,480.4366 C115.5,490.4366 74,490.4366 74,490.4366 C74,490.4366 32.5,490.4366 32.5,480.4366 L32.5,454.9483 " fill="#F1F1F1" style="stroke:#181818;stroke-width:0.5;"/><path d="M32.5,454.9483 C32.5,464.9483 74,464.9483 74,464.9483 C74,464.9483 115.5,464.9483 115.5,454.9483 " fill="none" style="stroke:#181818;stroke-width:0.5;"/><text fill="#000000" font-family="sans-serif" font-size="14" lengthAdjust="spacing" textLength="63" x="42.5" y="482.4834">Database</text></g><!--link browser to frontend--><g id="link_browser_frontend"><path d="M173,123.4383 C173,147.3483 173,181.9383 173,205.7383 " fill="none" id="browser-to-frontend" style="stroke:#181818;stroke-width:1.0;"/><polygon fill="#181818" points="173,211.7383,177,202.7383,173,206.7383,169,202.7383,173,211.7383" style="stroke:#181818;stroke-width:1.0;"/></g><!--link frontend to auth--><g id="link_frontend_auth"><path d="M175.94,251.8383 C180.78,279.1683 192.25,330.2783 215,367.9483 C224.75,384.0883 237.78,380.5283 245,397.9483 C251.56,413.7783 250.3964,427.5528 246.7864,441.7728 " fill="none" id="frontend-to-auth" style="stroke:#181818;stroke-width:1.0;"/><polygon fill="#181818" points="245.31,447.5883,251.4016,439.8492,246.5403,442.742,243.6475,437.8807,245.31,447.5883" style="stroke:#181818;stroke-width:1.0;"/><text fill="#000000" font-family="sans-serif" font-size="13" lengthAdjust="spacing" textLength="40" x="216" y="353.2766">HTTPS</text></g><!--link auth to frontend--><g id="link_auth_frontend"><path d="M248.06,447.6983 C259.75,420.4283 276.8,368.9883 261,328.4583 C248.62,296.6983 224.8795,272.8907 203.6695,255.5907 " fill="none" id="auth-to-frontend" style="stroke:#181818;stroke-width:1.0;"/><polygon fill="#181818" points="199.02,251.7983,203.466,260.5865,202.8946,254.9586,208.5225,254.3872,199.02,251.7983" style="stroke:#181818;stroke-width:1.0;"/><text fill="#000000" font-family="sans-serif" font-size="13" lengthAdjust="spacing" textLength="40" x="268" y="353.2766">HTTPS</text></g><!--link frontend to backend--><g id="link_frontend_backend"><path d="M156.6,251.8783 C138.51,273.0183 113.4714,302.2599 95.3614,323.4199 " fill="none" id="frontend-to-backend" style="stroke:#181818;stroke-width:1.0;"/><polygon fill="#181818" points="91.46,327.9783,100.351,323.7416,94.7111,324.1796,94.2731,318.5397,91.46,327.9783" style="stroke:#181818;stroke-width:1.0;"/><text fill="#000000" font-family="sans-serif" font-size="13" lengthAdjust="spacing" textLength="40" x="130" y="295.0266">HTTPS</text></g><!--link backend to frontend--><g id="link_backend_frontend"><path d="M66.95,328.1683 C62.39,314.1883 59.17,295.2983 68,281.4583 C80.87,261.2983 98.7538,251.2027 120.3238,244.1927 " fill="none" id="backend-to-frontend" style="stroke:#181818;stroke-width:1.0;"/><polygon fill="#181818" points="126.03,242.3383,116.2344,241.3158,121.2748,243.8837,118.707,248.9241,126.03,242.3383" style="stroke:#181818;stroke-width:1.0;"/><text fill="#000000" font-family="sans-serif" font-size="13" lengthAdjust="spacing" textLength="40" x="69" y="295.0266">HTTPS</text></g><!--link backend to auth--><g id="link_backend_auth"><path d="M118.81,365.9983 C137.36,374.1783 158.66,385.0583 176,397.9483 C195.1,412.1483 209.3176,428.0025 221.1276,442.9325 " fill="none" id="backend-to-auth" style="stroke:#181818;stroke-width:1.0;"/><polygon fill="#181818" points="224.85,447.6383,222.4036,438.0981,221.748,443.7168,216.1293,443.0612,224.85,447.6383" style="stroke:#181818;stroke-width:1.0;"/><text fill="#000000" font-family="sans-serif" font-size="13" lengthAdjust="spacing" textLength="40" x="196" y="411.5166">HTTPS</text></g><!--link auth to backend--><g id="link_auth_backend"><path d="M207.02,456.7283 C183.06,448.2083 150.35,434.2483 126,414.9483 C109.58,401.9383 98.6408,387.6278 89.4308,373.2778 " fill="none" id="auth-to-backend" style="stroke:#181818;stroke-width:1.0;"/><polygon fill="#181818" points="86.19,368.2283,87.6849,377.963,88.8907,372.4362,94.4175,373.6419,86.19,368.2283" style="stroke:#181818;stroke-width:1.0;"/><text fill="#000000" font-family="sans-serif" font-size="13" lengthAdjust="spacing" textLength="40" x="127" y="411.5166">HTTPS</text></g><!--link backend to db--><g id="link_backend_db"><path d="M69.73,368.0183 C67.48,376.9983 65.11,387.9483 64,397.9483 C62.26,413.5283 63.5661,425.1617 66.5561,438.5917 " fill="none" id="backend-to-db" style="stroke:#181818;stroke-width:1.0;"/><polygon fill="#181818" points="67.86,444.4483,69.8086,434.7941,66.7734,439.5678,61.9998,436.5326,67.86,444.4483" style="stroke:#181818;stroke-width:1.0;"/><text fill="#000000" font-family="sans-serif" font-size="13" lengthAdjust="spacing" textLength="24" x="65" y="411.5166">SQL</text></g><!--SRC=[ROxD2i9038Jl-nIXTr_0Ws0jua6aKi5prarrwS_ADYeYlhlRxOzjwMqcNoOJrfmJH7JFpRkWaY7IUBLO254QHH1iSksc0Nm405hMALuOWZD92ArvLMG3m0faeyMtYyLMFv493iGlOxDfVcjDoLGg7qvRCze8yP9r2xBH8xv-yCr3TC8HXOmIArSTjSfJ9UkVslTWiLZzsqId_BW-0qlOdKvn8hmPBlTa76eVwsddPwD3EDysFJUAAEdcoN4lVW00]--></g></svg>