<?xml version="1.0" encoding="us-ascii" standalone="no"?><svg xmlns="http://www.w3.org/2000/svg" xmlns:xlink="http://www.w3.org/1999/xlink" contentStyleType="text/css" height="511px" preserveAspectRatio="none" style="width:590px;height:511px;background:#FFFFFF;" version="1.1" viewBox="0 0 590 511" width="590px" zoomAndPan="magnify"><defs/><g><!--cluster Application Server--><g id="cluster_Application Server"><polygon fill="none" points="16,144.49,26,134.49,358,134.49,358,481.95,348,491.95,16,491.95,16,144.49" style="stroke:#181818;stroke-width:1.0;"/><line style="stroke:#181818;stroke-width:1.0;" x1="348" x2="358" y1="144.49" y2="134.49"/><line style="stroke:#181818;stroke-width:1.0;" x1="16" x2="348" y1="144.49" y2="144.49"/><line style="stroke:#181818;stroke-width:1.0;" x1="348" x2="348" y1="144.49" y2="491.95"/><text fill="#000000" font-family="sans-serif" font-size="14" font-weight="bold" lengthAdjust="spacing" textLength="131" x="117.5" y="161.0252">Application Server</text></g><!--cluster Database Server--><g id="cluster_Database Server"><polygon fill="none" points="382,403.46,392,393.46,573,393.46,573,484.95,563,494.95,382,494.95,382,403.46" style="stroke:#181818;stroke-width:1.0;"/><line style="stroke:#181818;stroke-width:1.0;" x1="563" x2="573" y1="403.46" y2="393.46"/><line style="stroke:#181818;stroke-width:1.0;" x1="382" x2="563" y1="403.46" y2="403.46"/><line style="stroke:#181818;stroke-width:1.0;" x1="563" x2="563" y1="403.46" y2="494.95"/><text fill="#000000" font-family="sans-serif" font-size="14" font-weight="bold" lengthAdjust="spacing" textLength="115" x="416" y="419.9952">Database Server</text></g><!--cluster Client--><g id="cluster_Client"><polygon fill="none" points="122,16,132,6,272,6,272,91.49,262,101.49,122,101.49,122,16" style="stroke:#181818;stroke-width:1.0;"/><line style="stroke:#181818;stroke-width:1.0;" x1="262" x2="272" y1="16" y2="6"/><line style="stroke:#181818;stroke-width:1.0;" x1="122" x2="262" y1="16" y2="16"/><line style="stroke:#181818;stroke-width:1.0;" x1="262" x2="262" y1="16" y2="101.49"/><text fill="#000000" font-family="sans-serif" font-size="14" font-weight="bold" lengthAdjust="spacing" textLength="43" x="171.5" y="32.5352">Client</text></g><!--entity frontend--><g id="elem_frontend"><rect fill="#F1F1F1" height="39.4883" rx="2.5" ry="2.5" style="stroke:#181818;stroke-width:0.5;" width="93" x="150.5" y="174.49"/><polygon fill="#F1F1F1" points="226.5,179.49,226.5,193.49,238.5,193.49,238.5,185.49,232.5,179.49,226.5,179.49" style="stroke:#181818;stroke-width:0.5;"/><line style="stroke:#181818;stroke-width:0.5;" x1="232.5" x2="232.5" y1="179.49" y2="185.49"/><line style="stroke:#181818;stroke-width:0.5;" x1="238.5" x2="232.5" y1="185.49" y2="185.49"/><text fill="#000000" font-family="sans-serif" font-size="14" lengthAdjust="spacing" textLength="63" x="160.5" y="201.0252">Frontend</text></g><!--entity backend--><g id="elem_backend"><rect fill="#F1F1F1" height="39.4883" rx="2.5" ry="2.5" style="stroke:#181818;stroke-width:0.5;" width="87" x="255.5" y="290.97"/><polygon fill="#F1F1F1" points="325.5,295.97,325.5,309.97,337.5,309.97,337.5,301.97,331.5,295.97,325.5,295.97" style="stroke:#181818;stroke-width:0.5;"/><line style="stroke:#181818;stroke-width:0.5;" x1="331.5" x2="331.5" y1="295.97" y2="301.97"/><line style="stroke:#181818;stroke-width:0.5;" x1="337.5" x2="331.5" y1="301.97" y2="301.97"/><text fill="#000000" font-family="sans-serif" font-size="14" lengthAdjust="spacing" textLength="57" x="265.5" y="317.5052">Backend</text></g><!--entity auth--><g id="elem_auth"><rect fill="#F1F1F1" height="39.4883" rx="2.5" ry="2.5" style="stroke:#181818;stroke-width:0.5;" width="63" x="165.5" y="436.46"/><polygon fill="#F1F1F1" points="211.5,441.46,211.5,455.46,223.5,455.46,223.5,447.46,217.5,441.46,211.5,441.46" style="stroke:#181818;stroke-width:0.5;"/><line style="stroke:#181818;stroke-width:0.5;" x1="217.5" x2="217.5" y1="441.46" y2="447.46"/><line style="stroke:#181818;stroke-width:0.5;" x1="223.5" x2="217.5" y1="447.46" y2="447.46"/><text fill="#000000" font-family="sans-serif" font-size="14" lengthAdjust="spacing" textLength="33" x="175.5" y="462.9952">Auth</text></g><!--entity db--><g id="elem_db"><path d="M398.5,443.46 C398.5,433.46 440,433.46 440,433.46 C440,433.46 481.5,433.46 481.5,443.46 L481.5,468.9483 C481.5,478.9483 440,478.9483 440,478.9483 C440,478.9483 398.5,478.9483 398.5,468.9483 L398.5,443.46 " fill="#F1F1F1" style="stroke:#181818;stroke-width:0.5;"/><path d="M398.5,443.46 C398.5,453.46 440,453.46 440,453.46 C440,453.46 481.5,453.46 481.5,443.46 " fill="none" style="stroke:#181818;stroke-width:0.5;"/><text fill="#000000" font-family="sans-serif" font-size="14" lengthAdjust="spacing" textLength="63" x="408.5" y="470.9952">Database</text></g><!--entity browser--><g id="elem_browser"><rect fill="#F1F1F1" height="39.4883" rx="2.5" ry="2.5" style="stroke:#181818;stroke-width:0.5;" width="118" x="138" y="46"/><polygon fill="#F1F1F1" points="239,51,239,65,251,65,251,57,245,51,239,51" style="stroke:#181818;stroke-width:0.5;"/><line style="stroke:#181818;stroke-width:0.5;" x1="245" x2="245" y1="51" y2="57"/><line style="stroke:#181818;stroke-width:0.5;" x1="251" x2="245" y1="57" y2="57"/><text fill="#000000" font-family="sans-serif" font-size="14" lengthAdjust="spacing" textLength="88" x="148" y="72.5352">Web Browser</text></g><!--link browser to frontend--><g id="link_browser_frontend"><path d="M197,85.95 C197,109.86 197,144.45 197,168.25 " fill="none" id="browser-to-frontend" style="stroke:#181818;stroke-width:1.0;"/><polygon fill="#181818" points="197,174.25,201,165.25,197,169.25,193,165.25,197,174.25" style="stroke:#181818;stroke-width:1.0;"/></g><!--link frontend to auth--><g id="link_frontend_auth"><path d="M195.56,214.2 C194.95,223.21 194.3,234.14 194,243.97 C192.18,303.27 192.86,318.14 194,377.46 C194.39,397.45 195.0557,414.3163 195.7757,430.0463 " fill="none" id="frontend-to-auth" style="stroke:#181818;stroke-width:1.0;"/><polygon fill="#181818" points="196.05,436.04,199.6343,426.8665,195.8214,431.0452,191.6427,427.2323,196.05,436.04" style="stroke:#181818;stroke-width:1.0;"/><text fill="#000000" font-family="sans-serif" font-size="13" lengthAdjust="spacing" textLength="40" x="194" y="315.7884">HTTPS</text></g><!--link auth to frontend--><g id="link_auth_frontend"><path d="M182.84,435.98 C162.2,405.55 127.78,344.29 142,290.97 C149.71,262.08 164.9113,237.6954 178.3713,219.2654 " fill="none" id="auth-to-frontend" style="stroke:#181818;stroke-width:1.0;"/><polygon fill="#181818" points="181.91,214.42,173.3717,219.3289,178.9611,218.4578,179.8322,224.0472,181.91,214.42" style="stroke:#181818;stroke-width:1.0;"/><text fill="#000000" font-family="sans-serif" font-size="13" lengthAdjust="spacing" textLength="40" x="143" y="315.7884">HTTPS</text></g><!--link frontend to backend--><g id="link_frontend_backend"><path d="M227.09,214.38 C238.56,222.6 251.22,232.86 261,243.97 C273.37,258.02 281.0844,271.315 287.8344,285.185 " fill="none" id="frontend-to-backend" style="stroke:#181818;stroke-width:1.0;"/><polygon fill="#181818" points="290.46,290.58,290.1184,280.7371,288.272,286.0841,282.925,284.2378,290.46,290.58" style="stroke:#181818;stroke-width:1.0;"/><text fill="#000000" font-family="sans-serif" font-size="13" lengthAdjust="spacing" textLength="40" x="274" y="257.5384">HTTPS</text></g><!--link backend to frontend--><g id="link_backend_frontend"><path d="M255.12,294.45 C239,286.77 222.02,275.85 211,260.97 C201,247.47 198.1887,234.3387 197.3187,220.2087 " fill="none" id="backend-to-frontend" style="stroke:#181818;stroke-width:1.0;"/><polygon fill="#181818" points="196.95,214.22,193.5107,223.4488,197.2573,219.2105,201.4955,222.9572,196.95,214.22" style="stroke:#181818;stroke-width:1.0;"/><text fill="#000000" font-family="sans-serif" font-size="13" lengthAdjust="spacing" textLength="40" x="212" y="257.5384">HTTPS</text></g><!--link backend to auth--><g id="link_backend_auth"><path d="M288.99,330.93 C281.75,344.32 271.44,362.4 261,377.46 C246.45,398.43 231.6354,416.2584 218.1954,431.5884 " fill="none" id="backend-to-auth" style="stroke:#181818;stroke-width:1.0;"/><polygon fill="#181818" points="214.24,436.1,223.1809,431.9695,217.5362,432.3403,217.1653,426.6956,214.24,436.1" style="stroke:#181818;stroke-width:1.0;"/><text fill="#000000" font-family="sans-serif" font-size="13" lengthAdjust="spacing" textLength="40" x="272" y="374.0284">HTTPS</text></g><!--link auth to backend--><g id="link_auth_backend"><path d="M195.11,435.98 C194.09,415.46 195.47,382.88 211,360.46 C221.64,345.1 233.326,336.6039 249.646,328.9639 " fill="none" id="auth-to-backend" style="stroke:#181818;stroke-width:1.0;"/><polygon fill="#181818" points="255.08,326.42,245.233,326.6131,250.5516,328.5399,248.6249,333.8585,255.08,326.42" style="stroke:#181818;stroke-width:1.0;"/><text fill="#000000" font-family="sans-serif" font-size="13" lengthAdjust="spacing" textLength="40" x="212" y="374.0284">HTTPS</text></g><!--link backend to db--><g id="link_backend_db"><path d="M317.72,330.77 C343.79,357.3 386.705,400.9701 414.215,428.9701 " fill="none" id="backend-to-db" style="stroke:#181818;stroke-width:1.0;"/><polygon fill="#181818" points="418.42,433.25,414.9657,424.0268,414.9158,429.6834,409.2592,429.6335,418.42,433.25" style="stroke:#181818;stroke-width:1.0;"/><text fill="#000000" font-family="sans-serif" font-size="13" lengthAdjust="spacing" textLength="24" x="362" y="374.0284">SQL</text></g><!--SRC=[RK-z3e8m4Dxx59Vkl8232MYCWuC64kShBR6HjAIjEXZVNLeeKCBstVTptvtIN03DkwwLDJgf5PJ2l8MXy2K0Q9nii7P0JqOh9nIdW1QQSKWS1TRFQ603JlJyvHv1n1wG7o4gL1_H8KChabuUoKaEISxctA6LGhdrcNV1e33wO_qcVyY0VMo4a6Nx-G4IKQ3zPR23SrLTInA6fNbIqj3uwwJ6UJEw5BVRrkkI26SzNzukv0y0]--></g></svg>