<?xml version="1.0" encoding="us-ascii" standalone="no"?><svg xmlns="http://www.w3.org/2000/svg" xmlns:xlink="http://www.w3.org/1999/xlink" contentStyleType="text/css" height="559px" preserveAspectRatio="none" style="width:797px;height:559px;background:#FFFFFF;" version="1.1" viewBox="0 0 797 559" width="797px" zoomAndPan="magnify"><defs/><g><text fill="#000000" font-family="sans-serif" font-size="14" font-weight="bold" lengthAdjust="spacing" textLength="280" x="251.5" y="23.5352">Level 1 Data Flow Diagram - SocialNet</text><!--cluster SocialNet--><g id="cluster_SocialNet"><rect fill="none" height="508.95" rx="2.5" ry="2.5" style="stroke:#181818;stroke-width:1.0;" width="784" x="7" y="44.4883"/><text fill="#000000" font-family="sans-serif" font-size="14" font-weight="bold" lengthAdjust="spacing" textLength="67" x="365.5" y="60.0234">SocialNet</text></g><!--entity user--><g id="elem_user"><ellipse cx="143" cy="95.4883" fill="#F1F1F1" rx="12" ry="12" style="stroke:#181818;stroke-width:0.5;"/><line style="stroke:#181818;stroke-width:0.5;" x1="131" x2="155" y1="109.4883" y2="109.4883"/><text fill="#000000" font-family="sans-serif" font-size="14" lengthAdjust="spacing" textLength="31" x="127.5" y="125.0234">User</text></g><!--entity frontend--><g id="elem_frontend"><rect fill="#F1F1F1" height="36.4883" rx="2.5" ry="2.5" style="stroke:#181818;stroke-width:0.5;" width="83" x="150.5" y="219.9783"/><text fill="#000000" font-family="sans-serif" font-size="14" lengthAdjust="spacing" textLength="63" x="160.5" y="243.5134">Frontend</text></g><!--entity backend--><g id="elem_backend"><rect fill="#F1F1F1" height="36.4883" rx="2.5" ry="2.5" style="stroke:#181818;stroke-width:0.5;" width="77" x="252.5" y="348.4583"/><text fill="#000000" font-family="sans-serif" font-size="14" lengthAdjust="spacing" textLength="57" x="262.5" y="371.9934">Backend</text></g><!--entity auth--><g id="elem_auth"><rect fill="#F1F1F1" height="36.4883" rx="2.5" ry="2.5" style="stroke:#181818;stroke-width:0.5;" width="53" x="141.5" y="496.4483"/><text fill="#000000" font-family="sans-serif" font-size="14" lengthAdjust="spacing" textLength="33" x="151.5" y="519.9834">Auth</text></g><!--entity db--><g id="elem_db"><path d="M506,501.9483 C506,491.9483 565,491.9483 565,491.9483 C565,491.9483 624,491.9483 624,501.9483 L624,527.4366 C624,537.4366 565,537.4366 565,537.4366 C565,537.4366 506,537.4366 506,527.4366 L506,501.9483 " fill="#F1F1F1" style="stroke:#181818;stroke-width:0.5;"/><path d="M506,501.9483 C506,511.9483 565,511.9483 565,511.9483 C565,511.9483 624,511.9483 624,501.9483 " fill="none" style="stroke:#181818;stroke-width:0.5;"/><text fill="#000000" font-family="sans-serif" font-size="14" lengthAdjust="spacing" textLength="98" x="516" y="529.4834">User Database</text></g><!--link user to frontend--><g id="link_user_frontend"><path d="M126.81,114.2183 C102.46,129.7183 61.18,161.6083 80,189.9783 C95.52,213.3583 119.306,223.7966 144.196,229.7766 " fill="none" id="user-to-frontend" style="stroke:#181818;stroke-width:1.0;"/><polygon fill="#181818" points="150.03,231.1783,142.2135,225.1865,145.1683,230.0102,140.3446,232.9651,150.03,231.1783" style="stroke:#181818;stroke-width:1.0;"/><text fill="#000000" font-family="sans-serif" font-size="13" lengthAdjust="spacing" textLength="40" x="100.5" y="171.5466">HTTPS</text><text fill="#000000" font-family="sans-serif" font-size="13" lengthAdjust="spacing" textLength="79" x="81" y="186.8572">Post a Tweet</text></g><!--link frontend to user--><g id="link_frontend_user"><path d="M186.31,219.4783 C181.06,203.3383 172.89,178.9183 165,157.9783 C161.33,148.2383 159.3375,143.1626 155.4975,133.9926 " fill="none" id="frontend-to-user" style="stroke:#181818;stroke-width:1.0;"/><polygon fill="#181818" points="153.18,128.4583,152.9668,138.3048,155.1113,133.0702,160.3459,135.2148,153.18,128.4583" style="stroke:#181818;stroke-width:1.0;"/><text fill="#000000" font-family="sans-serif" font-size="13" lengthAdjust="spacing" textLength="40" x="188" y="171.5466">HTTPS</text><text fill="#000000" font-family="sans-serif" font-size="13" lengthAdjust="spacing" textLength="64" x="176" y="186.8572">HTTP_200</text></g><!--link frontend to backend--><g id="link_frontend_backend"><path d="M168.21,256.6683 C148.86,273.0383 127.01,297.9883 142,318.4583 C167.01,352.6183 210.8771,362.2354 246.0171,364.8954 " fill="none" id="frontend-to-backend" style="stroke:#181818;stroke-width:1.0;"/><polygon fill="#181818" points="252,365.3483,243.3276,360.6804,247.0143,364.9709,242.7237,368.6575,252,365.3483" style="stroke:#181818;stroke-width:1.0;"/><text fill="#000000" font-family="sans-serif" font-size="13" lengthAdjust="spacing" textLength="33" x="190.5" y="300.0266">HTTP</text><text fill="#000000" font-family="sans-serif" font-size="13" lengthAdjust="spacing" textLength="128" x="143" y="315.3372">Queries the Backend</text></g><!--link backend to frontend--><g id="link_backend_frontend"><path d="M291.76,347.9883 C291.63,330.7383 288.99,304.5483 276,286.4583 C265.56,271.9183 254.579,263.8749 239.039,256.4149 " fill="none" id="backend-to-frontend" style="stroke:#181818;stroke-width:1.0;"/><polygon fill="#181818" points="233.63,253.8183,240.0125,261.3192,238.1375,255.9821,243.4746,254.1072,233.63,253.8183" style="stroke:#181818;stroke-width:1.0;"/><text fill="#000000" font-family="sans-serif" font-size="13" lengthAdjust="spacing" textLength="33" x="304.5" y="300.0266">HTTP</text><text fill="#000000" font-family="sans-serif" font-size="13" lengthAdjust="spacing" textLength="64" x="289" y="315.3372">HTTP_200</text></g><!--link backend to auth--><g id="link_backend_auth"><path d="M252.26,369.6983 C191.84,373.6983 79.5,385.0583 55,414.9483 C41.76,431.1083 43.72,444.3683 55,461.9483 C73.88,491.3683 108.2416,503.0665 135.2416,508.5865 " fill="none" id="backend-to-auth" style="stroke:#181818;stroke-width:1.0;"/><polygon fill="#181818" points="141.12,509.7883,133.1036,504.0666,136.2213,508.7868,131.5012,511.9045,141.12,509.7883" style="stroke:#181818;stroke-width:1.0;"/><text fill="#000000" font-family="sans-serif" font-size="13" lengthAdjust="spacing" textLength="33" x="129" y="436.0166">HTTP</text><text fill="#000000" font-family="sans-serif" font-size="13" lengthAdjust="spacing" textLength="179" x="56" y="451.3272">Validates User Authorization</text></g><!--link auth to backend--><g id="link_auth_backend"><path d="M194.93,498.4783 C209.54,489.2683 227.18,476.5083 240,461.9483 C260.65,438.4883 273.8888,410.7918 282.1088,390.6918 " fill="none" id="auth-to-backend" style="stroke:#181818;stroke-width:1.0;"/><polygon fill="#181818" points="284.38,385.1383,277.2709,391.9545,282.4874,389.7662,284.6756,394.9827,284.38,385.1383" style="stroke:#181818;stroke-width:1.0;"/><text fill="#000000" font-family="sans-serif" font-size="13" lengthAdjust="spacing" textLength="33" x="339" y="428.5166">HTTP</text><text fill="#000000" font-family="sans-serif" font-size="13" lengthAdjust="spacing" textLength="169" x="271" y="443.8272">Returns user Authorization</text><text fill="#000000" font-family="sans-serif" font-size="13" lengthAdjust="spacing" textLength="77" x="317" y="459.1377">(role-based)</text></g><!--link backend to db--><g id="link_backend_db"><path d="M329.81,372.7083 C363.61,378.5183 412.74,390.6283 449,414.9483 C471.31,429.9083 467.13,443.8683 487,461.9483 C499.02,472.8883 508.4946,479.9467 521.7446,488.4167 " fill="none" id="backend-to-db" style="stroke:#181818;stroke-width:1.0;"/><polygon fill="#181818" points="526.8,491.6483,521.3714,483.4306,522.5872,488.9553,517.0626,490.1711,526.8,491.6483" style="stroke:#181818;stroke-width:1.0;"/><text fill="#000000" font-family="sans-serif" font-size="13" lengthAdjust="spacing" textLength="24" x="530" y="436.0166">SQL</text><text fill="#000000" font-family="sans-serif" font-size="13" lengthAdjust="spacing" textLength="108" x="488" y="451.3272">Perform a INSERT</text></g><!--link db to backend--><g id="link_db_backend"><path d="M584.42,491.7883 C601.21,470.1283 620.03,437.0983 601,414.9483 C566.45,374.7383 411.0597,368.4281 335.8097,367.6781 " fill="none" id="db-to-backend" style="stroke:#181818;stroke-width:1.0;"/><polygon fill="#181818" points="329.81,367.6183,338.7697,371.7078,334.8098,367.6681,338.8494,363.7082,329.81,367.6183" style="stroke:#181818;stroke-width:1.0;"/><text fill="#000000" font-family="sans-serif" font-size="13" lengthAdjust="spacing" textLength="24" x="663.5" y="436.0166">SQL</text><text fill="#000000" font-family="sans-serif" font-size="13" lengthAdjust="spacing" textLength="133" x="609" y="451.3272">Successful Operation</text></g><!--SRC=[RP31JiCm38RFxLDOFS6Xqk380Gaq9f2ciQs5KoNajkuMaIKeIPa0yUuuQLUj5PV8iJ_x_sqdd2HOqYT9k88vEeI5r4UO2zmPF40AcQu4oXMvE3PKELGxRaY6R08_SHoHSi9zGV9YoII05beEE7_MiJ1QEL9rA3VzPqJSO_L-0iek7jNlMhSFHUI0XzVijaHBdMmmxxy1gKi6l0b8qzj13cxWCS_NMQ7MsZf0o8_4YqL3tSEzTCyMQjEI4MJ1xGbwYppxHFaExsV0Nr4ATiODmPKthOtuHYUqYgE0_gUo9TSQrHrkt5Ie2wCbfNwt-d8YNPSy8TiiUICoZJO7NkffbJriSxvFEL4ANDPM5LdRj1AUFyXqliP39-Sgb7_VhcUpoQMyr-6Y0_CR_m40]--></g></svg>