<?xml version="1.0" encoding="us-ascii" standalone="no"?><svg xmlns="http://www.w3.org/2000/svg" xmlns:xlink="http://www.w3.org/1999/xlink" contentStyleType="text/css" height="632px" preserveAspectRatio="none" style="width:1281px;height:632px;background:#FFFFFF;" version="1.1" viewBox="0 0 1281 632" width="1281px" zoomAndPan="magnify"><defs/><g><text fill="#000000" font-family="sans-serif" font-size="14" font-weight="bold" lengthAdjust="spacing" textLength="105" x="581" y="23.5352">Domain Model</text><!--cluster User Aggregate--><g id="cluster_User Aggregate"><rect fill="none" height="299.37" rx="2.5" ry="2.5" style="stroke:#181818;stroke-width:1.0;" width="1268" x="7" y="326.9083"/><text fill="#000000" font-family="sans-serif" font-size="14" font-weight="bold" lengthAdjust="spacing" textLength="110" x="586" y="342.4434">User Aggregate</text></g><!--cluster Tweet Aggregate--><g id="cluster_Tweet Aggregate"><rect fill="none" height="233.42" rx="2.5" ry="2.5" style="stroke:#181818;stroke-width:1.0;" width="513" x="634" y="44.4883"/><text fill="#000000" font-family="sans-serif" font-size="14" font-weight="bold" lengthAdjust="spacing" textLength="122" x="829.5" y="60.0234">Tweet Aggregate</text></g><!--cluster Hashtag Aggregate--><g id="cluster_Hashtag Aggregate"><rect fill="none" height="167.46" rx="2.5" ry="2.5" style="stroke:#181818;stroke-width:1.0;" width="448" x="125" y="77.4683"/><text fill="#000000" font-family="sans-serif" font-size="14" font-weight="bold" lengthAdjust="spacing" textLength="137" x="280.5" y="93.0034">Hashtag Aggregate</text></g><!--class User--><g id="elem_User"><rect codeLine="5" fill="#F1F1F1" height="229.3711" id="User" rx="2.5" ry="2.5" style="stroke:#181818;stroke-width:0.5;" width="247" x="471.5" y="380.9083"/><ellipse cx="575.25" cy="396.9083" fill="#ADD1B2" rx="11" ry="11" style="stroke:#181818;stroke-width:1.0;"/><path d="M577.7231,403.0513 Q577.1421,403.3502 576.5029,403.4996 Q575.8638,403.649 575.1582,403.649 Q572.6514,403.649 571.3315,401.9971 Q570.0117,400.3453 570.0117,397.2242 Q570.0117,394.0948 571.3315,392.4429 Q572.6514,390.7911 575.1582,390.7911 Q575.8638,390.7911 576.5112,390.9405 Q577.1587,391.0899 577.7231,391.3887 L577.7231,394.1114 Q577.0923,393.5304 576.4988,393.2606 Q575.9053,392.9908 575.2744,392.9908 Q573.9297,392.9908 573.2449,394.0575 Q572.5601,395.1241 572.5601,397.2242 Q572.5601,399.316 573.2449,400.3826 Q573.9297,401.4493 575.2744,401.4493 Q575.9053,401.4493 576.4988,401.1795 Q577.0923,400.9097 577.7231,400.3287 Z " fill="#000000"/><text fill="#000000" font-family="sans-serif" font-size="14" lengthAdjust="spacing" textLength="31" x="595.75" y="402.1993">User</text><line style="stroke:#181818;stroke-width:0.5;" x1="472.5" x2="717.5" y1="412.9083" y2="412.9083"/><rect fill="none" height="6" style="stroke:#C82930;stroke-width:1.0;" width="6" x="479.5" y="423.6524"/><text fill="#000000" font-family="sans-serif" font-size="14" lengthAdjust="spacing" textLength="69" x="491.5" y="430.4434">userId: int</text><rect fill="none" height="6" style="stroke:#C82930;stroke-width:1.0;" width="6" x="479.5" y="440.1407"/><text fill="#000000" font-family="sans-serif" font-size="14" lengthAdjust="spacing" textLength="116" x="491.5" y="446.9317">username: string</text><rect fill="none" height="6" style="stroke:#C82930;stroke-width:1.0;" width="6" x="479.5" y="456.629"/><text fill="#000000" font-family="sans-serif" font-size="14" lengthAdjust="spacing" textLength="85" x="491.5" y="463.42">email: string</text><rect fill="none" height="6" style="stroke:#C82930;stroke-width:1.0;" width="6" x="479.5" y="473.1173"/><text fill="#000000" font-family="sans-serif" font-size="14" lengthAdjust="spacing" textLength="114" x="491.5" y="479.9083">password: string</text><rect fill="none" height="6" style="stroke:#C82930;stroke-width:1.0;" width="6" x="479.5" y="489.6055"/><text fill="#000000" font-family="sans-serif" font-size="14" lengthAdjust="spacing" textLength="221" x="491.5" y="496.3966">profilePicture: mediaAttachment</text><rect fill="none" height="6" style="stroke:#C82930;stroke-width:1.0;" width="6" x="479.5" y="506.0938"/><text fill="#000000" font-family="sans-serif" font-size="14" lengthAdjust="spacing" textLength="70" x="491.5" y="512.8848">bio: string</text><rect fill="none" height="6" style="stroke:#C82930;stroke-width:1.0;" width="6" x="479.5" y="522.5821"/><text fill="#000000" font-family="sans-serif" font-size="14" lengthAdjust="spacing" textLength="89" x="491.5" y="529.3731">followers: int</text><rect fill="none" height="6" style="stroke:#C82930;stroke-width:1.0;" width="6" x="479.5" y="539.0704"/><text fill="#000000" font-family="sans-serif" font-size="14" lengthAdjust="spacing" textLength="90" x="491.5" y="545.8614">following: int</text><rect fill="none" height="6" style="stroke:#C82930;stroke-width:1.0;" width="6" x="479.5" y="555.5587"/><text fill="#000000" font-family="sans-serif" font-size="14" lengthAdjust="spacing" textLength="65" x="491.5" y="562.3497">role: Role</text><rect fill="none" height="6" style="stroke:#C82930;stroke-width:1.0;" width="6" x="479.5" y="572.047"/><text fill="#000000" font-family="sans-serif" font-size="14" lengthAdjust="spacing" textLength="91" x="491.5" y="578.838">status: Status</text><rect fill="none" height="6" style="stroke:#C82930;stroke-width:1.0;" width="6" x="479.5" y="588.5352"/><text fill="#000000" font-family="sans-serif" font-size="14" lengthAdjust="spacing" textLength="70" x="491.5" y="595.3263">type: Type</text><line style="stroke:#181818;stroke-width:0.5;" x1="472.5" x2="717.5" y1="602.2794" y2="602.2794"/></g><!--class Role--><g id="elem_Role"><rect codeLine="19" fill="#F1F1F1" height="80.9766" id="Role" rx="2.5" ry="2.5" style="stroke:#181818;stroke-width:0.5;" width="140" x="271" y="455.1083"/><ellipse cx="321.75" cy="471.1083" fill="#ADD1B2" rx="11" ry="11" style="stroke:#181818;stroke-width:1.0;"/><path d="M324.2231,477.2513 Q323.6421,477.5502 323.0029,477.6996 Q322.3638,477.849 321.6582,477.849 Q319.1514,477.849 317.8315,476.1971 Q316.5117,474.5453 316.5117,471.4242 Q316.5117,468.2948 317.8315,466.6429 Q319.1514,464.9911 321.6582,464.9911 Q322.3638,464.9911 323.0112,465.1405 Q323.6587,465.2899 324.2231,465.5888 L324.2231,468.3114 Q323.5923,467.7304 322.9988,467.4606 Q322.4053,467.1908 321.7744,467.1908 Q320.4297,467.1908 319.7449,468.2575 Q319.0601,469.3241 319.0601,471.4242 Q319.0601,473.516 319.7449,474.5826 Q320.4297,475.6493 321.7744,475.6493 Q322.4053,475.6493 322.9988,475.3795 Q323.5923,475.1097 324.2231,474.5287 Z " fill="#000000"/><text fill="#000000" font-family="sans-serif" font-size="14" lengthAdjust="spacing" textLength="30" x="342.25" y="476.3993">Role</text><line style="stroke:#181818;stroke-width:0.5;" x1="272" x2="410" y1="487.1083" y2="487.1083"/><rect fill="none" height="6" style="stroke:#C82930;stroke-width:1.0;" width="6" x="279" y="497.8524"/><text fill="#000000" font-family="sans-serif" font-size="14" lengthAdjust="spacing" textLength="66" x="291" y="504.6434">roleId: int</text><rect fill="none" height="6" style="stroke:#C82930;stroke-width:1.0;" width="6" x="279" y="514.3407"/><text fill="#000000" font-family="sans-serif" font-size="14" lengthAdjust="spacing" textLength="114" x="291" y="521.1317">roleName: string</text><line style="stroke:#181818;stroke-width:0.5;" x1="272" x2="410" y1="528.0848" y2="528.0848"/></g><!--class MediaType--><g id="elem_MediaType"><rect codeLine="24" fill="#F1F1F1" height="64.4883" id="MediaType" rx="2.5" ry="2.5" style="stroke:#181818;stroke-width:0.5;" width="106" x="1153" y="463.3483"/><ellipse cx="1168" cy="479.3483" fill="#EB937F" rx="11" ry="11" style="stroke:#181818;stroke-width:1.0;"/><path d="M1171.6143,485.8483 L1163.8945,485.8483 L1163.8945,473.4552 L1171.6143,473.4552 L1171.6143,475.6134 L1166.3433,475.6134 L1166.3433,478.2863 L1171.1162,478.2863 L1171.1162,480.4445 L1166.3433,480.4445 L1166.3433,483.6901 L1171.6143,483.6901 Z " fill="#000000"/><text fill="#000000" font-family="sans-serif" font-size="14" lengthAdjust="spacing" textLength="74" x="1182" y="484.6393">MediaType</text><line style="stroke:#181818;stroke-width:0.5;" x1="1154" x2="1258" y1="495.3483" y2="495.3483"/><rect fill="none" height="6" style="stroke:#C82930;stroke-width:1.0;" width="6" x="1161" y="506.0924"/><text fill="#000000" font-family="sans-serif" font-size="14" lengthAdjust="spacing" textLength="44" x="1173" y="512.8834">IMAGE</text><line style="stroke:#181818;stroke-width:0.5;" x1="1154" x2="1258" y1="519.8366" y2="519.8366"/></g><!--class UserType--><g id="elem_UserType"><rect codeLine="28" fill="#F1F1F1" height="80.9766" id="UserType" rx="2.5" ry="2.5" style="stroke:#181818;stroke-width:0.5;" width="96" x="140" y="455.1083"/><ellipse cx="155" cy="471.1083" fill="#EB937F" rx="11" ry="11" style="stroke:#181818;stroke-width:1.0;"/><path d="M158.6143,477.6083 L150.8945,477.6083 L150.8945,465.2152 L158.6143,465.2152 L158.6143,467.3734 L153.3433,467.3734 L153.3433,470.0463 L158.1162,470.0463 L158.1162,472.2045 L153.3433,472.2045 L153.3433,475.4501 L158.6143,475.4501 Z " fill="#000000"/><text fill="#000000" font-family="sans-serif" font-size="14" lengthAdjust="spacing" textLength="64" x="169" y="476.3993">UserType</text><line style="stroke:#181818;stroke-width:0.5;" x1="141" x2="235" y1="487.1083" y2="487.1083"/><rect fill="none" height="6" style="stroke:#C82930;stroke-width:1.0;" width="6" x="148" y="497.8524"/><text fill="#000000" font-family="sans-serif" font-size="14" lengthAdjust="spacing" textLength="40" x="160" y="504.6434">BASIC</text><rect fill="none" height="6" style="stroke:#C82930;stroke-width:1.0;" width="6" x="148" y="514.3407"/><text fill="#000000" font-family="sans-serif" font-size="14" lengthAdjust="spacing" textLength="63" x="160" y="521.1317">PREMIUM</text><line style="stroke:#181818;stroke-width:0.5;" x1="141" x2="235" y1="528.0848" y2="528.0848"/></g><!--class Status--><g id="elem_Status"><rect codeLine="33" fill="#F1F1F1" height="80.9766" id="Status" rx="2.5" ry="2.5" style="stroke:#181818;stroke-width:0.5;" width="82" x="23" y="455.1083"/><ellipse cx="41.6" cy="471.1083" fill="#EB937F" rx="11" ry="11" style="stroke:#181818;stroke-width:1.0;"/><path d="M45.2143,477.6083 L37.4945,477.6083 L37.4945,465.2152 L45.2143,465.2152 L45.2143,467.3734 L39.9433,467.3734 L39.9433,470.0463 L44.7162,470.0463 L44.7162,472.2045 L39.9433,472.2045 L39.9433,475.4501 L45.2143,475.4501 Z " fill="#000000"/><text fill="#000000" font-family="sans-serif" font-size="14" lengthAdjust="spacing" textLength="42" x="56.4" y="476.3993">Status</text><line style="stroke:#181818;stroke-width:0.5;" x1="24" x2="104" y1="487.1083" y2="487.1083"/><rect fill="none" height="6" style="stroke:#C82930;stroke-width:1.0;" width="6" x="31" y="497.8524"/><text fill="#000000" font-family="sans-serif" font-size="14" lengthAdjust="spacing" textLength="50" x="43" y="504.6434">ACTIVE</text><rect fill="none" height="6" style="stroke:#C82930;stroke-width:1.0;" width="6" x="31" y="514.3407"/><text fill="#000000" font-family="sans-serif" font-size="14" lengthAdjust="spacing" textLength="56" x="43" y="521.1317">BANNED</text><line style="stroke:#181818;stroke-width:0.5;" x1="24" x2="104" y1="528.0848" y2="528.0848"/></g><!--class MediaAttachment--><g id="elem_MediaAttachment"><rect codeLine="38" fill="#F1F1F1" height="97.4648" id="MediaAttachment" rx="2.5" ry="2.5" style="stroke:#181818;stroke-width:0.5;" width="152" x="954" y="446.8583"/><ellipse cx="969" cy="462.8583" fill="#ADD1B2" rx="11" ry="11" style="stroke:#181818;stroke-width:1.0;"/><path d="M971.4731,469.0013 Q970.8921,469.3002 970.2529,469.4496 Q969.6138,469.599 968.9082,469.599 Q966.4014,469.599 965.0815,467.9471 Q963.7617,466.2953 963.7617,463.1742 Q963.7617,460.0448 965.0815,458.3929 Q966.4014,456.7411 968.9082,456.7411 Q969.6138,456.7411 970.2612,456.8905 Q970.9087,457.0399 971.4731,457.3388 L971.4731,460.0614 Q970.8423,459.4804 970.2488,459.2106 Q969.6553,458.9408 969.0244,458.9408 Q967.6797,458.9408 966.9949,460.0075 Q966.3101,461.0741 966.3101,463.1742 Q966.3101,465.266 966.9949,466.3326 Q967.6797,467.3993 969.0244,467.3993 Q969.6553,467.3993 970.2488,467.1295 Q970.8423,466.8597 971.4731,466.2787 Z " fill="#000000"/><text fill="#000000" font-family="sans-serif" font-size="14" lengthAdjust="spacing" textLength="120" x="983" y="468.1493">MediaAttachment</text><line style="stroke:#181818;stroke-width:0.5;" x1="955" x2="1105" y1="478.8583" y2="478.8583"/><rect fill="none" height="6" style="stroke:#C82930;stroke-width:1.0;" width="6" x="962" y="489.6024"/><text fill="#000000" font-family="sans-serif" font-size="14" lengthAdjust="spacing" textLength="39" x="974" y="496.3934">id: int</text><rect fill="none" height="6" style="stroke:#C82930;stroke-width:1.0;" width="6" x="962" y="506.0907"/><text fill="#000000" font-family="sans-serif" font-size="14" lengthAdjust="spacing" textLength="67" x="974" y="512.8817">url: string</text><rect fill="none" height="6" style="stroke:#C82930;stroke-width:1.0;" width="6" x="962" y="522.579"/><text fill="#000000" font-family="sans-serif" font-size="14" lengthAdjust="spacing" textLength="111" x="974" y="529.37">type: MediaType</text><line style="stroke:#181818;stroke-width:0.5;" x1="955" x2="1105" y1="536.3231" y2="536.3231"/></g><!--class Tweet--><g id="elem_Tweet"><rect codeLine="46" fill="#F1F1F1" height="163.418" id="Tweet" rx="2.5" ry="2.5" style="stroke:#181818;stroke-width:0.5;" width="231" x="649.5" y="98.4883"/><ellipse cx="740.25" cy="114.4883" fill="#ADD1B2" rx="11" ry="11" style="stroke:#181818;stroke-width:1.0;"/><path d="M742.7231,120.6313 Q742.1421,120.9302 741.5029,121.0796 Q740.8638,121.229 740.1582,121.229 Q737.6514,121.229 736.3315,119.5771 Q735.0117,117.9253 735.0117,114.8042 Q735.0117,111.6748 736.3315,110.0229 Q737.6514,108.3711 740.1582,108.3711 Q740.8638,108.3711 741.5112,108.5205 Q742.1587,108.6699 742.7231,108.9688 L742.7231,111.6914 Q742.0923,111.1104 741.4988,110.8406 Q740.9053,110.5708 740.2744,110.5708 Q738.9297,110.5708 738.2449,111.6375 Q737.5601,112.7041 737.5601,114.8042 Q737.5601,116.896 738.2449,117.9626 Q738.9297,119.0293 740.2744,119.0293 Q740.9053,119.0293 741.4988,118.7595 Q742.0923,118.4897 742.7231,117.9087 Z " fill="#000000"/><text fill="#000000" font-family="sans-serif" font-size="14" lengthAdjust="spacing" textLength="41" x="760.75" y="119.7793">Tweet</text><line style="stroke:#181818;stroke-width:0.5;" x1="650.5" x2="879.5" y1="130.4883" y2="130.4883"/><rect fill="none" height="6" style="stroke:#C82930;stroke-width:1.0;" width="6" x="657.5" y="141.2324"/><text fill="#000000" font-family="sans-serif" font-size="14" lengthAdjust="spacing" textLength="76" x="669.5" y="148.0234">tweetId: int</text><rect fill="none" height="6" style="stroke:#C82930;stroke-width:1.0;" width="6" x="657.5" y="157.7207"/><text fill="#000000" font-family="sans-serif" font-size="14" lengthAdjust="spacing" textLength="100" x="669.5" y="164.5117">content: string</text><rect fill="none" height="6" style="stroke:#C82930;stroke-width:1.0;" width="6" x="657.5" y="174.209"/><text fill="#000000" font-family="sans-serif" font-size="14" lengthAdjust="spacing" textLength="140" x="669.5" y="181">timestamp: datetime</text><rect fill="none" height="6" style="stroke:#C82930;stroke-width:1.0;" width="6" x="657.5" y="190.6973"/><text fill="#000000" font-family="sans-serif" font-size="14" lengthAdjust="spacing" textLength="57" x="669.5" y="197.4883">likes: int</text><rect fill="none" height="6" style="stroke:#C82930;stroke-width:1.0;" width="6" x="657.5" y="207.1855"/><text fill="#000000" font-family="sans-serif" font-size="14" lengthAdjust="spacing" textLength="84" x="669.5" y="213.9766">retweets: int</text><rect fill="none" height="6" style="stroke:#C82930;stroke-width:1.0;" width="6" x="657.5" y="223.6738"/><text fill="#000000" font-family="sans-serif" font-size="14" lengthAdjust="spacing" textLength="72" x="669.5" y="230.4648">replies: int</text><rect fill="none" height="6" style="stroke:#C82930;stroke-width:1.0;" width="6" x="657.5" y="240.1621"/><text fill="#000000" font-family="sans-serif" font-size="14" lengthAdjust="spacing" textLength="205" x="669.5" y="246.9531">attachment: MediaAttachment</text><line style="stroke:#181818;stroke-width:0.5;" x1="650.5" x2="879.5" y1="253.9063" y2="253.9063"/></g><!--class Reply--><g id="elem_Reply"><rect codeLine="56" fill="#F1F1F1" height="80.9766" id="Reply" rx="2.5" ry="2.5" style="stroke:#181818;stroke-width:0.5;" width="159" x="972.5" y="139.7083"/><ellipse cx="1029.25" cy="155.7083" fill="#ADD1B2" rx="11" ry="11" style="stroke:#181818;stroke-width:1.0;"/><path d="M1031.7231,161.8513 Q1031.1421,162.1502 1030.5029,162.2996 Q1029.8638,162.449 1029.1582,162.449 Q1026.6514,162.449 1025.3315,160.7971 Q1024.0117,159.1453 1024.0117,156.0242 Q1024.0117,152.8948 1025.3315,151.2429 Q1026.6514,149.5911 1029.1582,149.5911 Q1029.8638,149.5911 1030.5112,149.7405 Q1031.1587,149.8899 1031.7231,150.1887 L1031.7231,152.9114 Q1031.0923,152.3304 1030.4988,152.0606 Q1029.9053,151.7908 1029.2744,151.7908 Q1027.9297,151.7908 1027.2449,152.8575 Q1026.5601,153.9241 1026.5601,156.0242 Q1026.5601,158.116 1027.2449,159.1826 Q1027.9297,160.2493 1029.2744,160.2493 Q1029.9053,160.2493 1030.4988,159.9795 Q1031.0923,159.7097 1031.7231,159.1287 Z " fill="#000000"/><text fill="#000000" font-family="sans-serif" font-size="14" lengthAdjust="spacing" textLength="37" x="1049.75" y="160.9993">Reply</text><line style="stroke:#181818;stroke-width:0.5;" x1="973.5" x2="1130.5" y1="171.7083" y2="171.7083"/><rect fill="none" height="6" style="stroke:#C82930;stroke-width:1.0;" width="6" x="980.5" y="182.4524"/><text fill="#000000" font-family="sans-serif" font-size="14" lengthAdjust="spacing" textLength="133" x="992.5" y="189.2434">originalTweetId: int</text><rect fill="none" height="6" style="stroke:#C82930;stroke-width:1.0;" width="6" x="980.5" y="198.9407"/><text fill="#000000" font-family="sans-serif" font-size="14" lengthAdjust="spacing" textLength="114" x="992.5" y="205.7317">replyTweetId: int</text><line style="stroke:#181818;stroke-width:0.5;" x1="973.5" x2="1130.5" y1="212.6848" y2="212.6848"/></g><!--class Hashtag--><g id="elem_Hashtag"><rect codeLine="64" fill="#F1F1F1" height="80.9766" id="Hashtag" rx="2.5" ry="2.5" style="stroke:#181818;stroke-width:0.5;" width="160" x="397" y="139.7083"/><ellipse cx="444.75" cy="155.7083" fill="#ADD1B2" rx="11" ry="11" style="stroke:#181818;stroke-width:1.0;"/><path d="M447.2231,161.8513 Q446.6421,162.1502 446.0029,162.2996 Q445.3638,162.449 444.6582,162.449 Q442.1514,162.449 440.8315,160.7971 Q439.5117,159.1453 439.5117,156.0242 Q439.5117,152.8948 440.8315,151.2429 Q442.1514,149.5911 444.6582,149.5911 Q445.3638,149.5911 446.0112,149.7405 Q446.6587,149.8899 447.2231,150.1887 L447.2231,152.9114 Q446.5923,152.3304 445.9988,152.0606 Q445.4053,151.7908 444.7744,151.7908 Q443.4297,151.7908 442.7449,152.8575 Q442.0601,153.9241 442.0601,156.0242 Q442.0601,158.116 442.7449,159.1826 Q443.4297,160.2493 444.7744,160.2493 Q445.4053,160.2493 445.9988,159.9795 Q446.5923,159.7097 447.2231,159.1287 Z " fill="#000000"/><text fill="#000000" font-family="sans-serif" font-size="14" lengthAdjust="spacing" textLength="56" x="465.25" y="160.9993">Hashtag</text><line style="stroke:#181818;stroke-width:0.5;" x1="398" x2="556" y1="171.7083" y2="171.7083"/><rect fill="none" height="6" style="stroke:#C82930;stroke-width:1.0;" width="6" x="405" y="182.4524"/><text fill="#000000" font-family="sans-serif" font-size="14" lengthAdjust="spacing" textLength="94" x="417" y="189.2434">hashtagId: int</text><rect fill="none" height="6" style="stroke:#C82930;stroke-width:1.0;" width="6" x="405" y="198.9407"/><text fill="#000000" font-family="sans-serif" font-size="14" lengthAdjust="spacing" textLength="134" x="417" y="205.7317">hashtagText: string</text><line style="stroke:#181818;stroke-width:0.5;" x1="398" x2="556" y1="212.6848" y2="212.6848"/></g><!--class HashtagStatistic--><g id="elem_HashtagStatistic"><rect codeLine="69" fill="#F1F1F1" height="97.4648" id="HashtagStatistic" rx="2.5" ry="2.5" style="stroke:#181818;stroke-width:0.5;" width="196" x="141" y="131.4683"/><ellipse cx="180.75" cy="147.4683" fill="#ADD1B2" rx="11" ry="11" style="stroke:#181818;stroke-width:1.0;"/><path d="M183.2231,153.6113 Q182.6421,153.9102 182.0029,154.0596 Q181.3638,154.209 180.6582,154.209 Q178.1514,154.209 176.8315,152.5571 Q175.5117,150.9053 175.5117,147.7842 Q175.5117,144.6548 176.8315,143.0029 Q178.1514,141.3511 180.6582,141.3511 Q181.3638,141.3511 182.0112,141.5005 Q182.6587,141.6499 183.2231,141.9487 L183.2231,144.6714 Q182.5923,144.0904 181.9988,143.8206 Q181.4053,143.5508 180.7744,143.5508 Q179.4297,143.5508 178.7449,144.6175 Q178.0601,145.6841 178.0601,147.7842 Q178.0601,149.876 178.7449,150.9426 Q179.4297,152.0093 180.7744,152.0093 Q181.4053,152.0093 181.9988,151.7395 Q182.5923,151.4697 183.2231,150.8887 Z " fill="#000000"/><text fill="#000000" font-family="sans-serif" font-size="14" lengthAdjust="spacing" textLength="109" x="200.25" y="152.7593">HashtagStatistic</text><line style="stroke:#181818;stroke-width:0.5;" x1="142" x2="336" y1="163.4683" y2="163.4683"/><rect fill="none" height="6" style="stroke:#C82930;stroke-width:1.0;" width="6" x="149" y="174.2124"/><text fill="#000000" font-family="sans-serif" font-size="14" lengthAdjust="spacing" textLength="94" x="161" y="181.0034">hashtagId: int</text><rect fill="none" height="6" style="stroke:#C82930;stroke-width:1.0;" width="6" x="149" y="190.7007"/><text fill="#000000" font-family="sans-serif" font-size="14" lengthAdjust="spacing" textLength="65" x="161" y="197.4917">count: int</text><rect fill="none" height="6" style="stroke:#C82930;stroke-width:1.0;" width="6" x="149" y="207.189"/><text fill="#000000" font-family="sans-serif" font-size="14" lengthAdjust="spacing" textLength="170" x="161" y="213.98">relatedHashtags: List[int]</text><line style="stroke:#181818;stroke-width:0.5;" x1="142" x2="336" y1="220.9331" y2="220.9331"/></g><!--link Tweet to User--><g id="link_Tweet_User"><path codeLine="76" d="M721,262.3083 C701.47,298.3083 678.15,341.3083 656.9,380.4683 " fill="none" id="Tweet-User" style="stroke:#181818;stroke-width:1.0;"/><text fill="#000000" font-family="sans-serif" font-size="13" lengthAdjust="spacing" textLength="34" x="703" y="307.4766">Posts</text><text fill="#000000" font-family="sans-serif" font-size="13" lengthAdjust="spacing" textLength="26" x="690.1016" y="282.5909">0...*</text><text fill="#000000" font-family="sans-serif" font-size="13" lengthAdjust="spacing" textLength="8" x="652.6092" y="370.1909">1</text></g><!--link User to User--><g id="link_User_User"><path codeLine="78" d="M718.94,478.7983 C739.4,481.1783 753.5,486.7683 753.5,495.5883 C753.5,504.4083 739.4,510.0083 718.94,512.3883 " fill="none" id="User-User" style="stroke:#181818;stroke-width:1.0;"/><text fill="#000000" font-family="sans-serif" font-size="13" lengthAdjust="spacing" textLength="48" x="759.5" y="500.6566">Follows</text><text fill="#000000" font-family="sans-serif" font-size="13" lengthAdjust="spacing" textLength="26" x="726.4289" y="475.0465">0...*</text><text fill="#000000" font-family="sans-serif" font-size="13" lengthAdjust="spacing" textLength="8" x="726.3365" y="510.503">1</text></g><!--link User to User--><g id="link_User_User"><path codeLine="79" d="M718.79,459.5383 C769.56,457.7783 813.5,469.7983 813.5,495.5883 C813.5,521.3883 769.56,533.4083 718.79,531.6483 " fill="none" id="User-User-1" style="stroke:#181818;stroke-width:1.0;"/><text fill="#000000" font-family="sans-serif" font-size="13" lengthAdjust="spacing" textLength="67" x="819.5" y="500.6566">IsFollowed</text><text fill="#000000" font-family="sans-serif" font-size="13" lengthAdjust="spacing" textLength="8" x="726.5772" y="454.4619">1</text><text fill="#000000" font-family="sans-serif" font-size="13" lengthAdjust="spacing" textLength="26" x="726.6982" y="530.8764">0...*</text></g><!--link Status to User--><g id="link_Status_User"><path codeLine="81" d="M66.11,454.9183 C70.53,416.2283 83.8,359.9483 123,332.4383 C178.48,293.5083 365.23,306.8683 428,332.4383 C454.84,343.3683 479.71,360.9283 501.63,380.5483 " fill="none" id="Status-User" style="stroke:#181818;stroke-width:1.0;"/><text fill="#000000" font-family="sans-serif" font-size="13" lengthAdjust="spacing" textLength="11" x="161.5" y="307.4766">Is</text><text fill="#000000" font-family="sans-serif" font-size="13" lengthAdjust="spacing" textLength="8" x="57.7852" y="444.2327">1</text><text fill="#000000" font-family="sans-serif" font-size="13" lengthAdjust="spacing" textLength="26" x="468.8157" y="370.276">0...*</text></g><!--link UserType to User--><g id="link_UserType_User"><path codeLine="82" d="M191.9,454.7683 C198.01,415.9583 213.72,359.5983 254,332.4383 C318.12,289.2083 356.38,303.2583 428,332.4383 C454.84,343.3683 479.71,360.9283 501.63,380.5483 " fill="none" id="UserType-User" style="stroke:#181818;stroke-width:1.0;"/><text fill="#000000" font-family="sans-serif" font-size="13" lengthAdjust="spacing" textLength="24" x="301" y="307.4766">Has</text><text fill="#000000" font-family="sans-serif" font-size="13" lengthAdjust="spacing" textLength="8" x="183.8834" y="444.358">1</text><text fill="#000000" font-family="sans-serif" font-size="13" lengthAdjust="spacing" textLength="26" x="496.4813" y="370.276">0...*</text></g><!--link Role to User--><g id="link_Role_User"><path codeLine="83" d="M411.42,495.5883 C430.06,495.5883 450.75,495.5883 471.33,495.5883 " fill="none" id="Role-User" style="stroke:#181818;stroke-width:1.0;"/><text fill="#000000" font-family="sans-serif" font-size="13" lengthAdjust="spacing" textLength="24" x="429.25" y="489.1566">Has</text><text fill="#000000" font-family="sans-serif" font-size="13" lengthAdjust="spacing" textLength="8" x="419.0946" y="492.3984">1</text><text fill="#000000" font-family="sans-serif" font-size="13" lengthAdjust="spacing" textLength="8" x="455.5501" y="492.7087">1</text></g><!--link User to MediaAttachment--><g id="link_User_MediaAttachment"><path codeLine="84" d="M718.78,495.5883 C794.38,495.5883 888.65,495.5883 953.51,495.5883 " fill="none" id="User-MediaAttachment" style="stroke:#181818;stroke-width:1.0;"/><text fill="#000000" font-family="sans-serif" font-size="13" lengthAdjust="spacing" textLength="24" x="824.25" y="489.1566">Has</text><text fill="#000000" font-family="sans-serif" font-size="13" lengthAdjust="spacing" textLength="8" x="726.5666" y="492.7087">1</text><text fill="#000000" font-family="sans-serif" font-size="13" lengthAdjust="spacing" textLength="8" x="938.0898" y="492.4793">1</text></g><!--link MediaAttachment to MediaType--><g id="link_MediaAttachment_MediaType"><path codeLine="86" d="M1106.43,495.5883 C1122.01,495.5883 1138.09,495.5883 1152.66,495.5883 " fill="none" id="MediaAttachment-MediaType" style="stroke:#181818;stroke-width:1.0;"/><text fill="#000000" font-family="sans-serif" font-size="13" lengthAdjust="spacing" textLength="11" x="1124" y="489.1566">Is</text><text fill="#000000" font-family="sans-serif" font-size="13" lengthAdjust="spacing" textLength="8" x="1114.096" y="492.4564">1</text><text fill="#000000" font-family="sans-serif" font-size="13" lengthAdjust="spacing" textLength="8" x="1136.9549" y="492.1691">1</text></g><!--link Hashtag to Tweet--><g id="link_Hashtag_Tweet"><path codeLine="88" d="M557.22,180.1983 C585.69,180.1983 618.31,180.1983 649.15,180.1983 " fill="none" id="Hashtag-Tweet" style="stroke:#181818;stroke-width:1.0;"/><text fill="#000000" font-family="sans-serif" font-size="13" lengthAdjust="spacing" textLength="56" x="575.25" y="173.7666">Contains</text><text fill="#000000" font-family="sans-serif" font-size="13" lengthAdjust="spacing" textLength="26" x="564.9398" y="193.4007">0...*</text><text fill="#000000" font-family="sans-serif" font-size="13" lengthAdjust="spacing" textLength="22" x="619.4201" y="193.2332">0..*</text></g><!--link Tweet to Reply--><g id="link_Tweet_Reply"><path codeLine="89" d="M880.91,180.1983 C911.55,180.1983 943.95,180.1983 972.2,180.1983 " fill="none" id="Tweet-Reply" style="stroke:#181818;stroke-width:1.0;"/><text fill="#000000" font-family="sans-serif" font-size="13" lengthAdjust="spacing" textLength="56" x="898.5" y="173.7666">Contains</text><text fill="#000000" font-family="sans-serif" font-size="13" lengthAdjust="spacing" textLength="8" x="888.5917" y="177.2962">1</text><text fill="#000000" font-family="sans-serif" font-size="13" lengthAdjust="spacing" textLength="26" x="938.515" y="193.4007">0...*</text></g><!--link Hashtag to User--><g id="link_Hashtag_User"><path codeLine="90" d="M491.94,220.8883 C507.01,260.9183 530.99,324.5983 552.03,380.4683 " fill="none" id="Hashtag-User" style="stroke:#181818;stroke-width:1.0;"/><text fill="#000000" font-family="sans-serif" font-size="13" lengthAdjust="spacing" textLength="48" x="526" y="307.4766">Follows</text><text fill="#000000" font-family="sans-serif" font-size="13" lengthAdjust="spacing" textLength="26" x="466.2492" y="241.1619">0...*</text><text fill="#000000" font-family="sans-serif" font-size="13" lengthAdjust="spacing" textLength="22" x="526.5725" y="370.1909">0..*</text></g><!--link HashtagStatistic to Hashtag--><g id="link_HashtagStatistic_Hashtag"><path codeLine="92" d="M337.18,180.1983 C357.02,180.1983 377.67,180.1983 396.81,180.1983 " fill="none" id="HashtagStatistic-Hashtag" style="stroke:#181818;stroke-width:1.0;"/><text fill="#000000" font-family="sans-serif" font-size="13" lengthAdjust="spacing" textLength="24" x="355" y="173.7666">Has</text><text fill="#000000" font-family="sans-serif" font-size="13" lengthAdjust="spacing" textLength="8" x="345.0032" y="177.2041">1</text><text fill="#000000" font-family="sans-serif" font-size="13" lengthAdjust="spacing" textLength="8" x="381.0487" y="177.0897">1</text></g><!--SRC=[ZLN1Zfim4Btp5HR7bHArLsuqcxP89OfssLwg7boO4Ai68zieZQhzzuwDIOnDf78WOkRvpSppiwEPva2UHKTPJqhH04yI2RMcVOlnz4s197dRIcYfXfJyJGW-DQTA4PkR0kRPa143HPCHrkiWsjCECgAqP7thfG2hyfNuWFGN8Pkrb1Gdnk78QZrAvEoWOJJNcjRd3XPrVp6niluaE1SNa2fiSqeWE4n8mR7E2xwzeD9KZyZnQd-zXBuEYAxmROFlYIUOuLW8PgXZmKpq40hcYA0VErAQcKs91LbHvb_s4TPiKWJzbByME-_x-B8lYxSoMZnDjrYQxwhY-tx1TJZid-DXo-N6B4XOR1AvveD9pDkuhiZxmg7L1K0_ikYKz4jh4uarhqMliSkr7bW7kDlTa946-Ssdb-NiDqHMac2hhCG7pc8ulOcKXQgjU0Wvhek9X6GjwoclrYSpHQzHpgheo_YLghEcxICXvxHV-3p5uf8kKS4VlURX1QEn65EQrVz7NOlHo1IEoB7XnZ6Ylj-GyGTYVjvdjPTL-Z4bct7OaFJ3ThjzIfq_Cd8KIgj781lDo6TxGIWFr8XB7y4ADG6XcVbSViFXf3TsfJjN1lmGSpkucP7Agtg7sFiaJACRpYuVc6b29k71N5rLsPE7xIMJHAP1hp_NxkoAZEpm_E0_Y9hXFgS3M-TwoDlWJu7UTzPPycGE1GA47fec_0S0]--></g></svg>