<?xml version="1.0" encoding="us-ascii" standalone="no"?><svg xmlns="http://www.w3.org/2000/svg" xmlns:xlink="http://www.w3.org/1999/xlink" contentStyleType="text/css" height="662px" preserveAspectRatio="none" style="width:1301px;height:662px;background:#FFFFFF;" version="1.1" viewBox="0 0 1301 662" width="1301px" zoomAndPan="magnify"><defs/><g><text fill="#000000" font-family="sans-serif" font-size="14" font-weight="bold" lengthAdjust="spacing" textLength="105" x="591" y="23.5352">Domain Model</text><!--cluster User Aggregate--><g id="cluster_User Aggregate"><polygon fill="none" points="16,345.9083,26,335.9083,1284,335.9083,1284,635.2783,1274,645.2783,16,645.2783,16,345.9083" style="stroke:#181818;stroke-width:1.0;"/><line style="stroke:#181818;stroke-width:1.0;" x1="1274" x2="1284" y1="345.9083" y2="335.9083"/><line style="stroke:#181818;stroke-width:1.0;" x1="16" x2="1274" y1="345.9083" y2="345.9083"/><line style="stroke:#181818;stroke-width:1.0;" x1="1274" x2="1274" y1="345.9083" y2="645.2783"/><text fill="#000000" font-family="sans-serif" font-size="14" font-weight="bold" lengthAdjust="spacing" textLength="110" x="591" y="362.4434">User Aggregate</text></g><!--cluster Tweet Aggregate--><g id="cluster_Tweet Aggregate"><polygon fill="none" points="643,53.4883,653,43.4883,1156,43.4883,1156,276.9083,1146,286.9083,643,286.9083,643,53.4883" style="stroke:#181818;stroke-width:1.0;"/><line style="stroke:#181818;stroke-width:1.0;" x1="1146" x2="1156" y1="53.4883" y2="43.4883"/><line style="stroke:#181818;stroke-width:1.0;" x1="643" x2="1146" y1="53.4883" y2="53.4883"/><line style="stroke:#181818;stroke-width:1.0;" x1="1146" x2="1146" y1="53.4883" y2="286.9083"/><text fill="#000000" font-family="sans-serif" font-size="14" font-weight="bold" lengthAdjust="spacing" textLength="122" x="834.5" y="70.0234">Tweet Aggregate</text></g><!--cluster Hashtag Aggregate--><g id="cluster_Hashtag Aggregate"><polygon fill="none" points="134,86.4683,144,76.4683,582,76.4683,582,243.9283,572,253.9283,134,253.9283,134,86.4683" style="stroke:#181818;stroke-width:1.0;"/><line style="stroke:#181818;stroke-width:1.0;" x1="572" x2="582" y1="86.4683" y2="76.4683"/><line style="stroke:#181818;stroke-width:1.0;" x1="134" x2="572" y1="86.4683" y2="86.4683"/><line style="stroke:#181818;stroke-width:1.0;" x1="572" x2="572" y1="86.4683" y2="253.9283"/><text fill="#000000" font-family="sans-serif" font-size="14" font-weight="bold" lengthAdjust="spacing" textLength="137" x="285.5" y="103.0034">Hashtag Aggregate</text></g><!--class User--><g id="elem_User"><rect codeLine="5" fill="#F1F1F1" height="229.3711" id="User" rx="2.5" ry="2.5" style="stroke:#181818;stroke-width:0.5;" width="247" x="480.5" y="399.9083"/><ellipse cx="584.25" cy="415.9083" fill="#ADD1B2" rx="11" ry="11" style="stroke:#181818;stroke-width:1.0;"/><path d="M586.7231,422.0513 Q586.1421,422.3502 585.5029,422.4996 Q584.8638,422.649 584.1582,422.649 Q581.6514,422.649 580.3315,420.9971 Q579.0117,419.3453 579.0117,416.2242 Q579.0117,413.0948 580.3315,411.4429 Q581.6514,409.7911 584.1582,409.7911 Q584.8638,409.7911 585.5112,409.9405 Q586.1587,410.0899 586.7231,410.3887 L586.7231,413.1114 Q586.0923,412.5304 585.4988,412.2606 Q584.9053,411.9908 584.2744,411.9908 Q582.9297,411.9908 582.2449,413.0575 Q581.5601,414.1241 581.5601,416.2242 Q581.5601,418.316 582.2449,419.3826 Q582.9297,420.4493 584.2744,420.4493 Q584.9053,420.4493 585.4988,420.1795 Q586.0923,419.9097 586.7231,419.3287 Z " fill="#000000"/><text fill="#000000" font-family="sans-serif" font-size="14" lengthAdjust="spacing" textLength="31" x="604.75" y="421.1993">User</text><line style="stroke:#181818;stroke-width:0.5;" x1="481.5" x2="726.5" y1="431.9083" y2="431.9083"/><rect fill="none" height="6" style="stroke:#C82930;stroke-width:1.0;" width="6" x="488.5" y="442.6524"/><text fill="#000000" font-family="sans-serif" font-size="14" lengthAdjust="spacing" textLength="69" x="500.5" y="449.4434">userId: int</text><rect fill="none" height="6" style="stroke:#C82930;stroke-width:1.0;" width="6" x="488.5" y="459.1407"/><text fill="#000000" font-family="sans-serif" font-size="14" lengthAdjust="spacing" textLength="116" x="500.5" y="465.9317">username: string</text><rect fill="none" height="6" style="stroke:#C82930;stroke-width:1.0;" width="6" x="488.5" y="475.629"/><text fill="#000000" font-family="sans-serif" font-size="14" lengthAdjust="spacing" textLength="85" x="500.5" y="482.42">email: string</text><rect fill="none" height="6" style="stroke:#C82930;stroke-width:1.0;" width="6" x="488.5" y="492.1173"/><text fill="#000000" font-family="sans-serif" font-size="14" lengthAdjust="spacing" textLength="114" x="500.5" y="498.9083">password: string</text><rect fill="none" height="6" style="stroke:#C82930;stroke-width:1.0;" width="6" x="488.5" y="508.6055"/><text fill="#000000" font-family="sans-serif" font-size="14" lengthAdjust="spacing" textLength="221" x="500.5" y="515.3966">profilePicture: mediaAttachment</text><rect fill="none" height="6" style="stroke:#C82930;stroke-width:1.0;" width="6" x="488.5" y="525.0938"/><text fill="#000000" font-family="sans-serif" font-size="14" lengthAdjust="spacing" textLength="70" x="500.5" y="531.8848">bio: string</text><rect fill="none" height="6" style="stroke:#C82930;stroke-width:1.0;" width="6" x="488.5" y="541.5821"/><text fill="#000000" font-family="sans-serif" font-size="14" lengthAdjust="spacing" textLength="89" x="500.5" y="548.3731">followers: int</text><rect fill="none" height="6" style="stroke:#C82930;stroke-width:1.0;" width="6" x="488.5" y="558.0704"/><text fill="#000000" font-family="sans-serif" font-size="14" lengthAdjust="spacing" textLength="90" x="500.5" y="564.8614">following: int</text><rect fill="none" height="6" style="stroke:#C82930;stroke-width:1.0;" width="6" x="488.5" y="574.5587"/><text fill="#000000" font-family="sans-serif" font-size="14" lengthAdjust="spacing" textLength="65" x="500.5" y="581.3497">role: Role</text><rect fill="none" height="6" style="stroke:#C82930;stroke-width:1.0;" width="6" x="488.5" y="591.047"/><text fill="#000000" font-family="sans-serif" font-size="14" lengthAdjust="spacing" textLength="91" x="500.5" y="597.838">status: Status</text><rect fill="none" height="6" style="stroke:#C82930;stroke-width:1.0;" width="6" x="488.5" y="607.5352"/><text fill="#000000" font-family="sans-serif" font-size="14" lengthAdjust="spacing" textLength="70" x="500.5" y="614.3263">type: Type</text><line style="stroke:#181818;stroke-width:0.5;" x1="481.5" x2="726.5" y1="621.2794" y2="621.2794"/></g><!--class Role--><g id="elem_Role"><rect codeLine="19" fill="#F1F1F1" height="80.9766" id="Role" rx="2.5" ry="2.5" style="stroke:#181818;stroke-width:0.5;" width="140" x="280" y="474.1083"/><ellipse cx="330.75" cy="490.1083" fill="#ADD1B2" rx="11" ry="11" style="stroke:#181818;stroke-width:1.0;"/><path d="M333.2231,496.2513 Q332.6421,496.5502 332.0029,496.6996 Q331.3638,496.849 330.6582,496.849 Q328.1514,496.849 326.8315,495.1971 Q325.5117,493.5453 325.5117,490.4242 Q325.5117,487.2948 326.8315,485.6429 Q328.1514,483.9911 330.6582,483.9911 Q331.3638,483.9911 332.0112,484.1405 Q332.6587,484.2899 333.2231,484.5888 L333.2231,487.3114 Q332.5923,486.7304 331.9988,486.4606 Q331.4053,486.1908 330.7744,486.1908 Q329.4297,486.1908 328.7449,487.2575 Q328.0601,488.3241 328.0601,490.4242 Q328.0601,492.516 328.7449,493.5826 Q329.4297,494.6493 330.7744,494.6493 Q331.4053,494.6493 331.9988,494.3795 Q332.5923,494.1097 333.2231,493.5287 Z " fill="#000000"/><text fill="#000000" font-family="sans-serif" font-size="14" lengthAdjust="spacing" textLength="30" x="351.25" y="495.3993">Role</text><line style="stroke:#181818;stroke-width:0.5;" x1="281" x2="419" y1="506.1083" y2="506.1083"/><rect fill="none" height="6" style="stroke:#C82930;stroke-width:1.0;" width="6" x="288" y="516.8524"/><text fill="#000000" font-family="sans-serif" font-size="14" lengthAdjust="spacing" textLength="66" x="300" y="523.6434">roleId: int</text><rect fill="none" height="6" style="stroke:#C82930;stroke-width:1.0;" width="6" x="288" y="533.3407"/><text fill="#000000" font-family="sans-serif" font-size="14" lengthAdjust="spacing" textLength="114" x="300" y="540.1317">roleName: string</text><line style="stroke:#181818;stroke-width:0.5;" x1="281" x2="419" y1="547.0848" y2="547.0848"/></g><!--class MediaType--><g id="elem_MediaType"><rect codeLine="24" fill="#F1F1F1" height="64.4883" id="MediaType" rx="2.5" ry="2.5" style="stroke:#181818;stroke-width:0.5;" width="106" x="1162" y="482.3483"/><ellipse cx="1177" cy="498.3483" fill="#EB937F" rx="11" ry="11" style="stroke:#181818;stroke-width:1.0;"/><path d="M1180.6143,504.8483 L1172.8945,504.8483 L1172.8945,492.4552 L1180.6143,492.4552 L1180.6143,494.6134 L1175.3433,494.6134 L1175.3433,497.2863 L1180.1162,497.2863 L1180.1162,499.4445 L1175.3433,499.4445 L1175.3433,502.6901 L1180.6143,502.6901 Z " fill="#000000"/><text fill="#000000" font-family="sans-serif" font-size="14" lengthAdjust="spacing" textLength="74" x="1191" y="503.6393">MediaType</text><line style="stroke:#181818;stroke-width:0.5;" x1="1163" x2="1267" y1="514.3483" y2="514.3483"/><rect fill="none" height="6" style="stroke:#C82930;stroke-width:1.0;" width="6" x="1170" y="525.0924"/><text fill="#000000" font-family="sans-serif" font-size="14" lengthAdjust="spacing" textLength="44" x="1182" y="531.8834">IMAGE</text><line style="stroke:#181818;stroke-width:0.5;" x1="1163" x2="1267" y1="538.8366" y2="538.8366"/></g><!--class UserType--><g id="elem_UserType"><rect codeLine="28" fill="#F1F1F1" height="80.9766" id="UserType" rx="2.5" ry="2.5" style="stroke:#181818;stroke-width:0.5;" width="96" x="149" y="474.1083"/><ellipse cx="164" cy="490.1083" fill="#EB937F" rx="11" ry="11" style="stroke:#181818;stroke-width:1.0;"/><path d="M167.6143,496.6083 L159.8945,496.6083 L159.8945,484.2152 L167.6143,484.2152 L167.6143,486.3734 L162.3433,486.3734 L162.3433,489.0463 L167.1162,489.0463 L167.1162,491.2045 L162.3433,491.2045 L162.3433,494.4501 L167.6143,494.4501 Z " fill="#000000"/><text fill="#000000" font-family="sans-serif" font-size="14" lengthAdjust="spacing" textLength="64" x="178" y="495.3993">UserType</text><line style="stroke:#181818;stroke-width:0.5;" x1="150" x2="244" y1="506.1083" y2="506.1083"/><rect fill="none" height="6" style="stroke:#C82930;stroke-width:1.0;" width="6" x="157" y="516.8524"/><text fill="#000000" font-family="sans-serif" font-size="14" lengthAdjust="spacing" textLength="40" x="169" y="523.6434">BASIC</text><rect fill="none" height="6" style="stroke:#C82930;stroke-width:1.0;" width="6" x="157" y="533.3407"/><text fill="#000000" font-family="sans-serif" font-size="14" lengthAdjust="spacing" textLength="63" x="169" y="540.1317">PREMIUM</text><line style="stroke:#181818;stroke-width:0.5;" x1="150" x2="244" y1="547.0848" y2="547.0848"/></g><!--class Status--><g id="elem_Status"><rect codeLine="33" fill="#F1F1F1" height="80.9766" id="Status" rx="2.5" ry="2.5" style="stroke:#181818;stroke-width:0.5;" width="82" x="32" y="474.1083"/><ellipse cx="50.6" cy="490.1083" fill="#EB937F" rx="11" ry="11" style="stroke:#181818;stroke-width:1.0;"/><path d="M54.2143,496.6083 L46.4945,496.6083 L46.4945,484.2152 L54.2143,484.2152 L54.2143,486.3734 L48.9433,486.3734 L48.9433,489.0463 L53.7162,489.0463 L53.7162,491.2045 L48.9433,491.2045 L48.9433,494.4501 L54.2143,494.4501 Z " fill="#000000"/><text fill="#000000" font-family="sans-serif" font-size="14" lengthAdjust="spacing" textLength="42" x="65.4" y="495.3993">Status</text><line style="stroke:#181818;stroke-width:0.5;" x1="33" x2="113" y1="506.1083" y2="506.1083"/><rect fill="none" height="6" style="stroke:#C82930;stroke-width:1.0;" width="6" x="40" y="516.8524"/><text fill="#000000" font-family="sans-serif" font-size="14" lengthAdjust="spacing" textLength="50" x="52" y="523.6434">ACTIVE</text><rect fill="none" height="6" style="stroke:#C82930;stroke-width:1.0;" width="6" x="40" y="533.3407"/><text fill="#000000" font-family="sans-serif" font-size="14" lengthAdjust="spacing" textLength="56" x="52" y="540.1317">BANNED</text><line style="stroke:#181818;stroke-width:0.5;" x1="33" x2="113" y1="547.0848" y2="547.0848"/></g><!--class MediaAttachment--><g id="elem_MediaAttachment"><rect codeLine="38" fill="#F1F1F1" height="97.4648" id="MediaAttachment" rx="2.5" ry="2.5" style="stroke:#181818;stroke-width:0.5;" width="152" x="963" y="465.8583"/><ellipse cx="978" cy="481.8583" fill="#ADD1B2" rx="11" ry="11" style="stroke:#181818;stroke-width:1.0;"/><path d="M980.4731,488.0013 Q979.8921,488.3002 979.2529,488.4496 Q978.6138,488.599 977.9082,488.599 Q975.4014,488.599 974.0815,486.9471 Q972.7617,485.2953 972.7617,482.1742 Q972.7617,479.0448 974.0815,477.3929 Q975.4014,475.7411 977.9082,475.7411 Q978.6138,475.7411 979.2612,475.8905 Q979.9087,476.0399 980.4731,476.3388 L980.4731,479.0614 Q979.8423,478.4804 979.2488,478.2106 Q978.6553,477.9408 978.0244,477.9408 Q976.6797,477.9408 975.9949,479.0075 Q975.3101,480.0741 975.3101,482.1742 Q975.3101,484.266 975.9949,485.3326 Q976.6797,486.3993 978.0244,486.3993 Q978.6553,486.3993 979.2488,486.1295 Q979.8423,485.8597 980.4731,485.2787 Z " fill="#000000"/><text fill="#000000" font-family="sans-serif" font-size="14" lengthAdjust="spacing" textLength="120" x="992" y="487.1493">MediaAttachment</text><line style="stroke:#181818;stroke-width:0.5;" x1="964" x2="1114" y1="497.8583" y2="497.8583"/><rect fill="none" height="6" style="stroke:#C82930;stroke-width:1.0;" width="6" x="971" y="508.6024"/><text fill="#000000" font-family="sans-serif" font-size="14" lengthAdjust="spacing" textLength="39" x="983" y="515.3934">id: int</text><rect fill="none" height="6" style="stroke:#C82930;stroke-width:1.0;" width="6" x="971" y="525.0907"/><text fill="#000000" font-family="sans-serif" font-size="14" lengthAdjust="spacing" textLength="67" x="983" y="531.8817">url: string</text><rect fill="none" height="6" style="stroke:#C82930;stroke-width:1.0;" width="6" x="971" y="541.579"/><text fill="#000000" font-family="sans-serif" font-size="14" lengthAdjust="spacing" textLength="111" x="983" y="548.37">type: MediaType</text><line style="stroke:#181818;stroke-width:0.5;" x1="964" x2="1114" y1="555.3231" y2="555.3231"/></g><!--class Tweet--><g id="elem_Tweet"><rect codeLine="46" fill="#F1F1F1" height="163.418" id="Tweet" rx="2.5" ry="2.5" style="stroke:#181818;stroke-width:0.5;" width="231" x="658.5" y="107.4883"/><ellipse cx="749.25" cy="123.4883" fill="#ADD1B2" rx="11" ry="11" style="stroke:#181818;stroke-width:1.0;"/><path d="M751.7231,129.6313 Q751.1421,129.9302 750.5029,130.0796 Q749.8638,130.229 749.1582,130.229 Q746.6514,130.229 745.3315,128.5771 Q744.0117,126.9253 744.0117,123.8042 Q744.0117,120.6748 745.3315,119.0229 Q746.6514,117.3711 749.1582,117.3711 Q749.8638,117.3711 750.5112,117.5205 Q751.1587,117.6699 751.7231,117.9688 L751.7231,120.6914 Q751.0923,120.1104 750.4988,119.8406 Q749.9053,119.5708 749.2744,119.5708 Q747.9297,119.5708 747.2449,120.6375 Q746.5601,121.7041 746.5601,123.8042 Q746.5601,125.896 747.2449,126.9626 Q747.9297,128.0293 749.2744,128.0293 Q749.9053,128.0293 750.4988,127.7595 Q751.0923,127.4897 751.7231,126.9087 Z " fill="#000000"/><text fill="#000000" font-family="sans-serif" font-size="14" lengthAdjust="spacing" textLength="41" x="769.75" y="128.7793">Tweet</text><line style="stroke:#181818;stroke-width:0.5;" x1="659.5" x2="888.5" y1="139.4883" y2="139.4883"/><rect fill="none" height="6" style="stroke:#C82930;stroke-width:1.0;" width="6" x="666.5" y="150.2324"/><text fill="#000000" font-family="sans-serif" font-size="14" lengthAdjust="spacing" textLength="76" x="678.5" y="157.0234">tweetId: int</text><rect fill="none" height="6" style="stroke:#C82930;stroke-width:1.0;" width="6" x="666.5" y="166.7207"/><text fill="#000000" font-family="sans-serif" font-size="14" lengthAdjust="spacing" textLength="100" x="678.5" y="173.5117">content: string</text><rect fill="none" height="6" style="stroke:#C82930;stroke-width:1.0;" width="6" x="666.5" y="183.209"/><text fill="#000000" font-family="sans-serif" font-size="14" lengthAdjust="spacing" textLength="140" x="678.5" y="190">timestamp: datetime</text><rect fill="none" height="6" style="stroke:#C82930;stroke-width:1.0;" width="6" x="666.5" y="199.6973"/><text fill="#000000" font-family="sans-serif" font-size="14" lengthAdjust="spacing" textLength="57" x="678.5" y="206.4883">likes: int</text><rect fill="none" height="6" style="stroke:#C82930;stroke-width:1.0;" width="6" x="666.5" y="216.1855"/><text fill="#000000" font-family="sans-serif" font-size="14" lengthAdjust="spacing" textLength="84" x="678.5" y="222.9766">retweets: int</text><rect fill="none" height="6" style="stroke:#C82930;stroke-width:1.0;" width="6" x="666.5" y="232.6738"/><text fill="#000000" font-family="sans-serif" font-size="14" lengthAdjust="spacing" textLength="72" x="678.5" y="239.4648">replies: int</text><rect fill="none" height="6" style="stroke:#C82930;stroke-width:1.0;" width="6" x="666.5" y="249.1621"/><text fill="#000000" font-family="sans-serif" font-size="14" lengthAdjust="spacing" textLength="205" x="678.5" y="255.9531">attachment: MediaAttachment</text><line style="stroke:#181818;stroke-width:0.5;" x1="659.5" x2="888.5" y1="262.9063" y2="262.9063"/></g><!--class Reply--><g id="elem_Reply"><rect codeLine="56" fill="#F1F1F1" height="80.9766" id="Reply" rx="2.5" ry="2.5" style="stroke:#181818;stroke-width:0.5;" width="159" x="981.5" y="148.7083"/><ellipse cx="1038.25" cy="164.7083" fill="#ADD1B2" rx="11" ry="11" style="stroke:#181818;stroke-width:1.0;"/><path d="M1040.7231,170.8513 Q1040.1421,171.1502 1039.5029,171.2996 Q1038.8638,171.449 1038.1582,171.449 Q1035.6514,171.449 1034.3315,169.7971 Q1033.0117,168.1453 1033.0117,165.0242 Q1033.0117,161.8948 1034.3315,160.2429 Q1035.6514,158.5911 1038.1582,158.5911 Q1038.8638,158.5911 1039.5112,158.7405 Q1040.1587,158.8899 1040.7231,159.1887 L1040.7231,161.9114 Q1040.0923,161.3304 1039.4988,161.0606 Q1038.9053,160.7908 1038.2744,160.7908 Q1036.9297,160.7908 1036.2449,161.8575 Q1035.5601,162.9241 1035.5601,165.0242 Q1035.5601,167.116 1036.2449,168.1826 Q1036.9297,169.2493 1038.2744,169.2493 Q1038.9053,169.2493 1039.4988,168.9795 Q1040.0923,168.7097 1040.7231,168.1287 Z " fill="#000000"/><text fill="#000000" font-family="sans-serif" font-size="14" lengthAdjust="spacing" textLength="37" x="1058.75" y="169.9993">Reply</text><line style="stroke:#181818;stroke-width:0.5;" x1="982.5" x2="1139.5" y1="180.7083" y2="180.7083"/><rect fill="none" height="6" style="stroke:#C82930;stroke-width:1.0;" width="6" x="989.5" y="191.4524"/><text fill="#000000" font-family="sans-serif" font-size="14" lengthAdjust="spacing" textLength="133" x="1001.5" y="198.2434">originalTweetId: int</text><rect fill="none" height="6" style="stroke:#C82930;stroke-width:1.0;" width="6" x="989.5" y="207.9407"/><text fill="#000000" font-family="sans-serif" font-size="14" lengthAdjust="spacing" textLength="114" x="1001.5" y="214.7317">replyTweetId: int</text><line style="stroke:#181818;stroke-width:0.5;" x1="982.5" x2="1139.5" y1="221.6848" y2="221.6848"/></g><!--class Hashtag--><g id="elem_Hashtag"><rect codeLine="64" fill="#F1F1F1" height="80.9766" id="Hashtag" rx="2.5" ry="2.5" style="stroke:#181818;stroke-width:0.5;" width="160" x="406" y="148.7083"/><ellipse cx="453.75" cy="164.7083" fill="#ADD1B2" rx="11" ry="11" style="stroke:#181818;stroke-width:1.0;"/><path d="M456.2231,170.8513 Q455.6421,171.1502 455.0029,171.2996 Q454.3638,171.449 453.6582,171.449 Q451.1514,171.449 449.8315,169.7971 Q448.5117,168.1453 448.5117,165.0242 Q448.5117,161.8948 449.8315,160.2429 Q451.1514,158.5911 453.6582,158.5911 Q454.3638,158.5911 455.0112,158.7405 Q455.6587,158.8899 456.2231,159.1887 L456.2231,161.9114 Q455.5923,161.3304 454.9988,161.0606 Q454.4053,160.7908 453.7744,160.7908 Q452.4297,160.7908 451.7449,161.8575 Q451.0601,162.9241 451.0601,165.0242 Q451.0601,167.116 451.7449,168.1826 Q452.4297,169.2493 453.7744,169.2493 Q454.4053,169.2493 454.9988,168.9795 Q455.5923,168.7097 456.2231,168.1287 Z " fill="#000000"/><text fill="#000000" font-family="sans-serif" font-size="14" lengthAdjust="spacing" textLength="56" x="474.25" y="169.9993">Hashtag</text><line style="stroke:#181818;stroke-width:0.5;" x1="407" x2="565" y1="180.7083" y2="180.7083"/><rect fill="none" height="6" style="stroke:#C82930;stroke-width:1.0;" width="6" x="414" y="191.4524"/><text fill="#000000" font-family="sans-serif" font-size="14" lengthAdjust="spacing" textLength="94" x="426" y="198.2434">hashtagId: int</text><rect fill="none" height="6" style="stroke:#C82930;stroke-width:1.0;" width="6" x="414" y="207.9407"/><text fill="#000000" font-family="sans-serif" font-size="14" lengthAdjust="spacing" textLength="134" x="426" y="214.7317">hashtagText: string</text><line style="stroke:#181818;stroke-width:0.5;" x1="407" x2="565" y1="221.6848" y2="221.6848"/></g><!--class HashtagStatistic--><g id="elem_HashtagStatistic"><rect codeLine="69" fill="#F1F1F1" height="97.4648" id="HashtagStatistic" rx="2.5" ry="2.5" style="stroke:#181818;stroke-width:0.5;" width="196" x="150" y="140.4683"/><ellipse cx="189.75" cy="156.4683" fill="#ADD1B2" rx="11" ry="11" style="stroke:#181818;stroke-width:1.0;"/><path d="M192.2231,162.6113 Q191.6421,162.9102 191.0029,163.0596 Q190.3638,163.209 189.6582,163.209 Q187.1514,163.209 185.8315,161.5571 Q184.5117,159.9053 184.5117,156.7842 Q184.5117,153.6548 185.8315,152.0029 Q187.1514,150.3511 189.6582,150.3511 Q190.3638,150.3511 191.0112,150.5005 Q191.6587,150.6499 192.2231,150.9488 L192.2231,153.6714 Q191.5923,153.0904 190.9988,152.8206 Q190.4053,152.5508 189.7744,152.5508 Q188.4297,152.5508 187.7449,153.6175 Q187.0601,154.6841 187.0601,156.7842 Q187.0601,158.876 187.7449,159.9426 Q188.4297,161.0093 189.7744,161.0093 Q190.4053,161.0093 190.9988,160.7395 Q191.5923,160.4697 192.2231,159.8887 Z " fill="#000000"/><text fill="#000000" font-family="sans-serif" font-size="14" lengthAdjust="spacing" textLength="109" x="209.25" y="161.7593">HashtagStatistic</text><line style="stroke:#181818;stroke-width:0.5;" x1="151" x2="345" y1="172.4683" y2="172.4683"/><rect fill="none" height="6" style="stroke:#C82930;stroke-width:1.0;" width="6" x="158" y="183.2124"/><text fill="#000000" font-family="sans-serif" font-size="14" lengthAdjust="spacing" textLength="94" x="170" y="190.0034">hashtagId: int</text><rect fill="none" height="6" style="stroke:#C82930;stroke-width:1.0;" width="6" x="158" y="199.7007"/><text fill="#000000" font-family="sans-serif" font-size="14" lengthAdjust="spacing" textLength="65" x="170" y="206.4917">count: int</text><rect fill="none" height="6" style="stroke:#C82930;stroke-width:1.0;" width="6" x="158" y="216.189"/><text fill="#000000" font-family="sans-serif" font-size="14" lengthAdjust="spacing" textLength="170" x="170" y="222.98">relatedHashtags: List[int]</text><line style="stroke:#181818;stroke-width:0.5;" x1="151" x2="345" y1="229.9331" y2="229.9331"/></g><!--link Tweet to User--><g id="link_Tweet_User"><path codeLine="76" d="M731.32,271.3883 C710.91,310.2083 686.13,357.3483 663.88,399.6783 " fill="none" id="Tweet-User" style="stroke:#181818;stroke-width:1.0;"/><text fill="#000000" font-family="sans-serif" font-size="13" lengthAdjust="spacing" textLength="34" x="715" y="316.4766">Posts</text><text fill="#000000" font-family="sans-serif" font-size="13" lengthAdjust="spacing" textLength="26" x="700.709" y="291.397">0...*</text><text fill="#000000" font-family="sans-serif" font-size="13" lengthAdjust="spacing" textLength="8" x="659.6344" y="389.0323">1</text></g><!--link User to User--><g id="link_User_User"><path codeLine="78" d="M727.94,496.9283 C748.4,499.4283 762.5,505.3183 762.5,514.5883 C762.5,523.8683 748.4,529.7583 727.94,532.2583 " fill="none" id="User-User" style="stroke:#181818;stroke-width:1.0;"/><text fill="#000000" font-family="sans-serif" font-size="13" lengthAdjust="spacing" textLength="48" x="768.5" y="519.6566">Follows</text><text fill="#000000" font-family="sans-serif" font-size="13" lengthAdjust="spacing" textLength="26" x="735.4289" y="493.1289">0...*</text><text fill="#000000" font-family="sans-serif" font-size="13" lengthAdjust="spacing" textLength="8" x="735.3365" y="530.4232">1</text></g><!--link User to User--><g id="link_User_User"><path codeLine="79" d="M727.79,476.6783 C778.56,474.8183 822.5,487.4583 822.5,514.5883 C822.5,541.7283 778.56,554.3683 727.79,552.5083 " fill="none" id="User-User-1" style="stroke:#181818;stroke-width:1.0;"/><text fill="#000000" font-family="sans-serif" font-size="13" lengthAdjust="spacing" textLength="67" x="828.5" y="519.6566">IsFollowed</text><text fill="#000000" font-family="sans-serif" font-size="13" lengthAdjust="spacing" textLength="8" x="735.5772" y="471.4886">1</text><text fill="#000000" font-family="sans-serif" font-size="13" lengthAdjust="spacing" textLength="26" x="735.6982" y="551.844">0...*</text></g><!--link Status to User--><g id="link_Status_User"><path codeLine="81" d="M74.43,473.8183 C78.27,433.5583 91.05,373.8983 132,344.7683 C187.23,305.4883 374.49,318.5683 437,344.7683 C466.36,357.0783 493.17,377.3483 516.31,399.6683 " fill="none" id="Status-User" style="stroke:#181818;stroke-width:1.0;"/><text fill="#000000" font-family="sans-serif" font-size="13" lengthAdjust="spacing" textLength="11" x="170.5" y="316.4766">Is</text><text fill="#000000" font-family="sans-serif" font-size="13" lengthAdjust="spacing" textLength="8" x="66.0043" y="463.4163">1</text><text fill="#000000" font-family="sans-serif" font-size="13" lengthAdjust="spacing" textLength="26" x="483.5449" y="389.0216">0...*</text></g><!--link UserType to User--><g id="link_UserType_User"><path codeLine="82" d="M200.16,473.6683 C205.7,433.2783 220.97,373.5283 263,344.7683 C326.82,301.0983 365.68,314.8783 437,344.7683 C466.36,357.0783 493.17,377.3483 516.31,399.6683 " fill="none" id="UserType-User" style="stroke:#181818;stroke-width:1.0;"/><text fill="#000000" font-family="sans-serif" font-size="13" lengthAdjust="spacing" textLength="24" x="310" y="316.4766">Has</text><text fill="#000000" font-family="sans-serif" font-size="13" lengthAdjust="spacing" textLength="8" x="192.0209" y="463.2414">1</text><text fill="#000000" font-family="sans-serif" font-size="13" lengthAdjust="spacing" textLength="26" x="511.2918" y="389.0216">0...*</text></g><!--link Role to User--><g id="link_Role_User"><path codeLine="83" d="M420.42,514.5883 C439.06,514.5883 459.75,514.5883 480.33,514.5883 " fill="none" id="Role-User" style="stroke:#181818;stroke-width:1.0;"/><text fill="#000000" font-family="sans-serif" font-size="13" lengthAdjust="spacing" textLength="24" x="438.25" y="508.1566">Has</text><text fill="#000000" font-family="sans-serif" font-size="13" lengthAdjust="spacing" textLength="8" x="428.0946" y="511.3984">1</text><text fill="#000000" font-family="sans-serif" font-size="13" lengthAdjust="spacing" textLength="8" x="464.5501" y="511.7087">1</text></g><!--link User to MediaAttachment--><g id="link_User_MediaAttachment"><path codeLine="84" d="M727.78,514.5883 C803.38,514.5883 897.65,514.5883 962.51,514.5883 " fill="none" id="User-MediaAttachment" style="stroke:#181818;stroke-width:1.0;"/><text fill="#000000" font-family="sans-serif" font-size="13" lengthAdjust="spacing" textLength="24" x="833.25" y="508.1566">Has</text><text fill="#000000" font-family="sans-serif" font-size="13" lengthAdjust="spacing" textLength="8" x="735.5666" y="511.7087">1</text><text fill="#000000" font-family="sans-serif" font-size="13" lengthAdjust="spacing" textLength="8" x="947.0898" y="511.4793">1</text></g><!--link MediaAttachment to MediaType--><g id="link_MediaAttachment_MediaType"><path codeLine="86" d="M1115.43,514.5883 C1131.01,514.5883 1147.09,514.5883 1161.66,514.5883 " fill="none" id="MediaAttachment-MediaType" style="stroke:#181818;stroke-width:1.0;"/><text fill="#000000" font-family="sans-serif" font-size="13" lengthAdjust="spacing" textLength="11" x="1133" y="508.1566">Is</text><text fill="#000000" font-family="sans-serif" font-size="13" lengthAdjust="spacing" textLength="8" x="1123.096" y="511.4564">1</text><text fill="#000000" font-family="sans-serif" font-size="13" lengthAdjust="spacing" textLength="8" x="1145.9549" y="511.1691">1</text></g><!--link Hashtag to Tweet--><g id="link_Hashtag_Tweet"><path codeLine="88" d="M566.22,189.1983 C594.69,189.1983 627.31,189.1983 658.15,189.1983 " fill="none" id="Hashtag-Tweet" style="stroke:#181818;stroke-width:1.0;"/><text fill="#000000" font-family="sans-serif" font-size="13" lengthAdjust="spacing" textLength="56" x="584.25" y="182.7666">Contains</text><text fill="#000000" font-family="sans-serif" font-size="13" lengthAdjust="spacing" textLength="26" x="573.9398" y="202.4007">0...*</text><text fill="#000000" font-family="sans-serif" font-size="13" lengthAdjust="spacing" textLength="22" x="628.4201" y="202.2332">0..*</text></g><!--link Tweet to Reply--><g id="link_Tweet_Reply"><path codeLine="89" d="M889.91,189.1983 C920.55,189.1983 952.95,189.1983 981.2,189.1983 " fill="none" id="Tweet-Reply" style="stroke:#181818;stroke-width:1.0;"/><text fill="#000000" font-family="sans-serif" font-size="13" lengthAdjust="spacing" textLength="56" x="907.5" y="182.7666">Contains</text><text fill="#000000" font-family="sans-serif" font-size="13" lengthAdjust="spacing" textLength="8" x="897.5917" y="186.2962">1</text><text fill="#000000" font-family="sans-serif" font-size="13" lengthAdjust="spacing" textLength="26" x="947.515" y="202.4007">0...*</text></g><!--link Hashtag to User--><g id="link_Hashtag_User"><path codeLine="90" d="M500.59,230.1783 C515.97,272.3383 540.92,340.7083 562.46,399.7383 " fill="none" id="Hashtag-User" style="stroke:#181818;stroke-width:1.0;"/><text fill="#000000" font-family="sans-serif" font-size="13" lengthAdjust="spacing" textLength="48" x="533" y="316.4766">Follows</text><text fill="#000000" font-family="sans-serif" font-size="13" lengthAdjust="spacing" textLength="26" x="474.8335" y="250.1942">0...*</text><text fill="#000000" font-family="sans-serif" font-size="13" lengthAdjust="spacing" textLength="22" x="560.4081" y="389.0963">0..*</text></g><!--link HashtagStatistic to Hashtag--><g id="link_HashtagStatistic_Hashtag"><path codeLine="92" d="M346.18,189.1983 C366.02,189.1983 386.67,189.1983 405.81,189.1983 " fill="none" id="HashtagStatistic-Hashtag" style="stroke:#181818;stroke-width:1.0;"/><text fill="#000000" font-family="sans-serif" font-size="13" lengthAdjust="spacing" textLength="24" x="364" y="182.7666">Has</text><text fill="#000000" font-family="sans-serif" font-size="13" lengthAdjust="spacing" textLength="8" x="354.0032" y="186.2041">1</text><text fill="#000000" font-family="sans-serif" font-size="13" lengthAdjust="spacing" textLength="8" x="390.0487" y="186.0897">1</text></g><!--SRC=[ZLLDZvim5BppAooEAoLghzneDcsHIXJjihrKFRZW4Ai68zieZQhzxtt-836s8vK34M_6y_o6CL5KCOAU-O3fY6hU4PPb8_oW_4qIWSg-5wJ7YkJeRuRWQXcM4XdC5lIrGJCKggv0T5H1TSG3AP1KWewz1n5eo1Br2UGlN7GfIF0JPUH8MpKBq1n8Ht6f56xF0rdr_KLvOls9CyOlHCXmcnO0SWW8pg3F2zozebHOpQ3nQduzG5qdO3TmDyNtp3DCQwmCqzAnORfw20rpGcIS1rJhcNMBbLXLbr_s4LU_f8ZwgNojTjxpyMLVLszrjDXEjrfQxfhg-twbTJZid-DXw_MBMOdGE2GYbGDhvcrSr-Hz2MTp8KGzIgS5_QvALsAxMpugs62gFHq8lEXXAb07-lhHGndzJQ8K2MAw9EeJep4Tt_mfGiCIyG6DwseYBcXFHyoQz6IwwJN2Z87EmQzOdXNk7tcum7xFiwt5tHpGa3ygbToLeWuMbOgs_oVTybax54x7OCETKmHhlu7Y3-3yl8zfFb7vnnnjvcc3yW_RxVOfTz4eq95B9H-HJBL0dyrdGNgaZb_6Y5P9IoJTekVm3ICdjJ4htMdIv8USst4jj5LUrpl5V4L2689mTdYG8ylCmkEONDMOymRRown5UeFU_jnsbrGKQ0T71_uov4BtDHtPXDPZtWP_2lo-gowMPqifC23Ca9tm7m00]--></g></svg>